<svg width="594" height="189" viewBox="0 0 594 189" fill="none" xmlns="http://www.w3.org/2000/svg">
<g filter="url(#filter0_d_2577_578)">
<path d="M10.5 129C10.5 122.372 15.8726 117 22.5 117H175.5V164C175.5 170.627 170.127 176 163.5 176H22.5C15.8726 176 10.5 170.627 10.5 164V129Z" fill="#663CE5" shape-rendering="crispEdges"/>
<path d="M10.5 129C10.5 122.372 15.8726 117 22.5 117H175.5V164C175.5 170.627 170.127 176 163.5 176H22.5C15.8726 176 10.5 170.627 10.5 164V129Z" stroke="#5130B3" shape-rendering="crispEdges"/>
<path opacity="0.5" d="M36.9268 126.912V130.001H38.7041V131.054H36.9268V134.185H35.6279V126.912H36.9268ZM33.5635 127.787C33.5635 130.958 31.417 133.242 27.8213 134.281L27.2881 133.228C30.1523 132.415 31.9229 130.822 32.1553 128.839H27.835V127.787H33.5635ZM33.0166 134.322C35.4912 134.322 37.0635 135.238 37.0635 136.728C37.0635 138.232 35.4912 139.148 33.0166 139.148C30.5557 139.148 28.9424 138.232 28.9561 136.728C28.9424 135.238 30.5557 134.322 33.0166 134.322ZM33.0166 135.347C31.3076 135.347 30.2275 135.867 30.2412 136.728C30.2275 137.589 31.3076 138.123 33.0166 138.123C34.7119 138.123 35.792 137.589 35.792 136.728C35.792 135.867 34.7119 135.347 33.0166 135.347ZM43.6533 130.029C43.6396 132.203 44.8975 134.417 46.7295 135.306L45.9229 136.345C44.5898 135.655 43.5576 134.281 43.0244 132.64C42.4707 134.39 41.3975 135.853 40.0029 136.578L39.1963 135.525C41.083 134.623 42.3545 132.271 42.3545 130.029V127.937H43.6533V130.029ZM48.9443 126.912V131.792H50.9131V132.9H48.9443V139.162H47.6455V126.912H48.9443ZM61.6455 126.912V133.83H60.3604V126.912H61.6455ZM53.5518 127.623V131.916C55.5273 131.902 57.2637 131.758 59.1025 131.369L59.2803 132.449C57.2568 132.859 55.4111 133.009 53.2646 133.009H52.2529V127.623H53.5518ZM61.6455 134.39V138.998H53.6201V134.39H61.6455ZM54.8916 135.416V137.958H60.374V135.416H54.8916Z" fill="white"/>
<path d="M29.3828 151.921V153.828H33.0547V151.921H34.5234V158.031H27.9297V151.921H29.3828ZM29.3828 156.843H33.0547V154.968H29.3828V156.843ZM38.3828 151.328V154.265H40.4141V155.468H38.3828V158.531H36.8984V151.328H38.3828ZM38.3828 159.14V162.671H30.8203V164H38.8672V165.187H29.3672V161.578H36.9141V160.312H29.3359V159.14H38.3828ZM52.1797 151.328V157.187H54.2891V158.437H52.1797V165.328H50.6953V151.328H52.1797ZM41.0391 161.515C42.1406 161.515 43.4219 161.515 44.7578 161.468V160.046C43.1797 159.828 42.1484 158.875 42.1641 157.515C42.1484 155.937 43.5078 154.89 45.5078 154.89C47.4922 154.89 48.8672 155.937 48.8828 157.515C48.8672 158.875 47.8203 159.835 46.2422 160.062V161.406C47.4844 161.359 48.7344 161.257 49.8984 161.093L49.9922 162.187C46.9609 162.734 43.6797 162.75 41.2734 162.75L41.0391 161.515ZM49.6953 152.984V154.171H41.3047V152.984H44.7578V151.359H46.2422V152.984H49.6953ZM45.5078 156.046C44.3359 156.046 43.5547 156.625 43.5547 157.515C43.5547 158.406 44.3359 158.953 45.5078 158.953C46.6797 158.953 47.4609 158.406 47.4609 157.515C47.4609 156.625 46.6797 156.046 45.5078 156.046ZM70.1328 152.156V153.265C70.1328 154.453 70.1328 155.843 69.7891 157.687H71.7578V158.906H58.9453V157.687H68.2891C68.6562 155.867 68.6641 154.539 68.6641 153.359H60.5547V152.156H70.1328ZM70.5547 163.812V165.031H60.6172V160.359H62.0859V163.812H70.5547ZM84.4297 151.328V165.328H82.9609V158.093H79.8203V156.875H82.9609V151.328H84.4297ZM79.8672 152.828C79.8516 156.89 78.2734 160.375 73.5234 162.734L72.7422 161.562C76.4531 159.75 78.1016 157.226 78.3672 154.015H73.3672V152.828H79.8672ZM97.5078 151.328V156.906H99.6797V158.14H97.5078V165.312H96.0234V151.328H97.5078ZM93.8516 152.796C93.8359 156.843 92.0547 160.453 87.4453 162.734L86.6172 161.578C90.125 159.828 92.0312 157.296 92.3359 154.031H87.3203V152.796H93.8516ZM117.133 159.562V160.734H111.414V165.328H109.961V160.734H104.32V159.562H117.133ZM107.383 151.89V153.718H114.039V151.89H115.523V157.968H105.914V151.89H107.383ZM107.383 156.781H114.039V154.906H107.383V156.781ZM129.789 151.875V153.078H125.539C125.688 154.468 127.695 155.632 130.273 155.906L129.727 157.078C127.312 156.796 125.312 155.773 124.555 154.281C123.773 155.773 121.781 156.796 119.367 157.078L118.836 155.906C121.391 155.632 123.391 154.46 123.555 153.078H119.336V151.875H129.789ZM130.961 158.296V159.5H118.164V158.296H123.805V156.265H125.273V158.296H130.961ZM129.367 160.75V165.328H127.867V161.937H119.586V160.75H129.367ZM138.914 153.64V154.843H131.961V153.64H134.711V151.734H136.18V153.64H138.914ZM135.445 155.687C137.227 155.687 138.477 157.015 138.492 158.906C138.477 160.812 137.227 162.156 135.445 162.156C133.695 162.156 132.398 160.812 132.414 158.906C132.398 157.015 133.695 155.687 135.445 155.687ZM135.445 156.921C134.43 156.921 133.727 157.75 133.727 158.906C133.727 160.093 134.43 160.89 135.445 160.89C136.445 160.89 137.18 160.093 137.18 158.906C137.18 157.75 136.445 156.921 135.445 156.921ZM143.977 151.328V165.328H142.57V158.375H140.961V164.671H139.555V151.64H140.961V157.156H142.57V151.328H143.977ZM158.633 162.343V163.578H145.82V162.343H148.883V158.687C147.734 158.054 147.039 157.046 147.039 155.796C147.039 153.593 149.195 152.14 152.195 152.14C155.211 152.14 157.367 153.593 157.367 155.796C157.367 157.031 156.695 158.023 155.57 158.656V162.343H158.633ZM152.195 153.328C149.992 153.328 148.477 154.281 148.477 155.796C148.477 157.296 149.992 158.281 152.195 158.281C154.383 158.281 155.93 157.296 155.93 155.796C155.93 154.281 154.383 153.328 152.195 153.328ZM150.352 162.343H154.07V159.218C153.5 159.367 152.867 159.437 152.195 159.437C151.539 159.437 150.914 159.367 150.352 159.234V162.343Z" fill="white"/>
</g>
<path d="M195.392 100.076C195.833 98.9215 194.767 97.7584 193.579 98.0978L172.662 104.072C171.137 104.507 171.243 106.703 172.803 106.989L183.466 108.948L184.668 120.176C184.835 121.743 186.997 122.024 187.56 120.552L195.392 100.076Z" fill="#663CE5"/>
<g filter="url(#filter1_d_2577_578)">
<path d="M272.5 30H571.5C578.127 30 583.5 35.3726 583.5 42V77C583.5 83.6274 578.127 89 571.5 89H284.5C277.873 89 272.5 83.6274 272.5 77V30Z" fill="#663CE5" shape-rendering="crispEdges"/>
<path d="M272.5 30H571.5C578.127 30 583.5 35.3726 583.5 42V77C583.5 83.6274 578.127 89 571.5 89H284.5C277.873 89 272.5 83.6274 272.5 77V30Z" stroke="#5130B3" shape-rendering="crispEdges"/>
<path opacity="0.5" d="M298.927 39.9121V43.002H300.704V44.0547H298.927V47.1855H297.628V39.9121H298.927ZM295.563 40.7871C295.563 43.959 293.417 46.2422 289.821 47.2812L289.288 46.2285C292.152 45.415 293.923 43.8223 294.155 41.8398H289.835V40.7871H295.563ZM295.017 47.3223C297.491 47.3223 299.063 48.2383 299.063 49.7285C299.063 51.2324 297.491 52.1484 295.017 52.1484C292.556 52.1484 290.942 51.2324 290.956 49.7285C290.942 48.2383 292.556 47.3223 295.017 47.3223ZM295.017 48.3477C293.308 48.3477 292.228 48.8672 292.241 49.7285C292.228 50.5898 293.308 51.123 295.017 51.123C296.712 51.123 297.792 50.5898 297.792 49.7285C297.792 48.8672 296.712 48.3477 295.017 48.3477ZM305.653 43.0293C305.64 45.2031 306.897 47.418 308.729 48.3066L307.923 49.3457C306.59 48.6553 305.558 47.2812 305.024 45.6406C304.471 47.3906 303.397 48.8535 302.003 49.5781L301.196 48.5254C303.083 47.623 304.354 45.2715 304.354 43.0293V40.9375H305.653V43.0293ZM310.944 39.9121V44.793H312.913V45.9004H310.944V52.1621H309.646V39.9121H310.944ZM323.646 39.9121V46.8301H322.36V39.9121H323.646ZM315.552 40.623V44.916C317.527 44.9023 319.264 44.7588 321.103 44.3691L321.28 45.4492C319.257 45.8594 317.411 46.0098 315.265 46.0098H314.253V40.623H315.552ZM323.646 47.3906V51.998H315.62V47.3906H323.646ZM316.892 48.416V50.959H322.374V48.416H316.892Z" fill="white"/>
<path d="M294.195 67.8906C294.18 70.375 295.617 72.9062 297.711 73.9219L296.789 75.1094C295.266 74.3203 294.086 72.75 293.477 70.875C292.844 72.875 291.617 74.5469 290.023 75.375L289.102 74.1719C291.258 73.1406 292.711 70.4531 292.711 67.8906V65.5H294.195V67.8906ZM300.242 64.3281V69.9062H302.492V71.1719H300.242V78.3281H298.758V64.3281H300.242ZM315.93 71.1562V72.3594H303.164V71.1562H306.227V69.2656C305.148 68.8281 304.539 68.125 304.539 67.2031C304.539 65.5469 306.461 64.5781 309.539 64.5781C312.602 64.5781 314.539 65.5469 314.539 67.2031C314.539 68.125 313.922 68.8359 312.836 69.2656V71.1562H315.93ZM309.539 73.3125C312.555 73.3125 314.367 74.2031 314.367 75.7969C314.367 77.4219 312.555 78.2969 309.539 78.2969C306.492 78.2969 304.68 77.4219 304.68 75.7969C304.68 74.2031 306.492 73.3125 309.539 73.3125ZM309.539 74.4531C307.398 74.4531 306.18 74.9375 306.18 75.7969C306.18 76.6719 307.398 77.1719 309.539 77.1562C311.648 77.1719 312.883 76.6719 312.883 75.7969C312.883 74.9375 311.648 74.4531 309.539 74.4531ZM309.539 65.7188C307.367 65.7188 306.055 66.2656 306.07 67.2031C306.055 68.1406 307.367 68.6719 309.539 68.6719C311.711 68.6719 313.008 68.1406 313.008 67.2031C313.008 66.2656 311.711 65.7188 309.539 65.7188ZM307.727 71.1562H311.367V69.6562C310.82 69.75 310.203 69.7969 309.539 69.7969C308.883 69.7969 308.273 69.75 307.727 69.6719V71.1562ZM321.867 68.4531C321.867 70.6719 323.32 73.1406 325.445 74.1406L324.602 75.2969C323.031 74.5391 321.789 72.9609 321.164 71.125C320.516 73.1328 319.203 74.8594 317.602 75.6562L316.727 74.4844C318.852 73.4688 320.398 70.8281 320.398 68.4531V66.9688H317.242V65.7344H324.914V66.9688H321.867V68.4531ZM327.898 64.3281V69.875H330.148V71.125H327.898V78.3281H326.414V64.3281H327.898ZM341.727 64.3281V69.9062H343.898V71.1406H341.727V78.3125H340.242V64.3281H341.727ZM338.07 65.7969C338.055 69.8438 336.273 73.4531 331.664 75.7344L330.836 74.5781C334.344 72.8281 336.25 70.2969 336.555 67.0312H331.539V65.7969H338.07ZM352.352 65.375C354.25 65.375 355.641 66.9844 355.867 69.5781H358.758V64.3281H360.227V78.3594H358.758V70.7812H355.883C355.719 73.5078 354.297 75.2031 352.352 75.2031C350.258 75.2031 348.789 73.2969 348.805 70.2812C348.789 67.2812 350.258 65.375 352.352 65.375ZM352.352 66.7031C351.086 66.7031 350.211 68.0781 350.211 70.2812C350.211 72.5 351.086 73.875 352.352 73.875C353.617 73.875 354.492 72.5 354.492 70.2812C354.492 68.0781 353.617 66.7031 352.352 66.7031ZM374.555 76.8281V78.0312H364.68V73.6406H366.164V76.8281H374.555ZM374.18 64.3438V74.5H372.727V69.3438H370.352V68.1406H372.727V64.3438H374.18ZM366.305 65.4531V66.6562H364.164V71.125C364.867 71.1016 365.617 71.0312 366.445 70.8438L366.57 72.0625C365.336 72.3281 364.352 72.3281 363.352 72.3281H362.727V65.4531H366.305ZM370.961 65.4531V66.6562H368.523V71.125C369.664 71.1172 370.484 71.0469 371.414 70.8281L371.57 72.0312C370.367 72.2969 369.398 72.3281 367.773 72.3281H367.055V65.4531H370.961ZM392.914 71.4062V72.6094H387.352V75.3281H385.883V72.6094H380.102V71.4062H392.914ZM391.258 64.9844V69.9531H381.742V64.9844H391.258ZM383.195 66.1562V68.7812H389.789V66.1562H383.195ZM391.492 76.8281V78.0312H381.695V74H383.18V76.8281H391.492ZM405.961 64.3281V78.3281H404.539V64.3281H405.961ZM403.117 64.625V77.625H401.711V70.5H399.539V69.2812H401.711V64.625H403.117ZM398.164 68.2344C398.164 70.625 399.133 73.0156 401.102 74.1562L400.211 75.25C398.875 74.4531 397.953 73.0391 397.477 71.3438C396.969 73.1719 396.016 74.7266 394.648 75.5781L393.742 74.4688C395.727 73.2656 396.742 70.7188 396.742 68.2344V67.1094H394.164V65.9062H400.57V67.1094H398.164V68.2344ZM420.57 70.75V71.8906H407.758V70.75H420.57ZM418.992 72.875V75.9531H410.773V77.1094H419.43V78.1562H409.289V74.9688H417.523V73.9375H409.273V72.875H418.992ZM418.961 64.6875V67.7188H410.867V68.7812H419.195V69.8281H409.398V66.7344H417.477V65.7344H409.367V64.6875H418.961ZM432.914 65.2031C432.914 65.7188 432.859 66.2031 432.758 66.6719H435.695V64.3438H437.18V72.4375H435.695V70.8438H432.164V69.6406H435.695V67.875H432.383C431.438 70.0547 429.305 71.6094 426.305 72.4219L425.711 71.2656C429.008 70.3828 431.039 68.6172 431.32 66.4219H426.445V65.2031H432.914ZM431.992 73.0469V78.3125H430.492V74.2656H427.305V73.0469H431.992ZM437.18 73.0469V78.3125H435.695V74.2656H432.633V73.0469H437.18ZM450.664 68.4219V69.6094H441.023V64.8281H442.492V68.4219H450.664ZM452.133 71.375V72.5625H439.32V71.375H452.133ZM450.758 76.7812V78H440.914V73.8906H442.398V76.7812H450.758ZM458.32 68.4531C458.32 70.7969 459.852 73.2188 462.008 74.1406L461.195 75.2969C459.547 74.5703 458.234 73.0312 457.586 71.1562C456.938 73.1562 455.617 74.8594 453.992 75.6562L453.133 74.4844C455.242 73.5 456.805 70.8594 456.82 68.4531V66.9688H453.617V65.7344H461.508V66.9688H458.32V68.4531ZM464.758 64.3281V78.3281H463.273V64.3281H464.758ZM479.789 70.75V71.8906H466.977V70.75H479.789ZM478.211 72.875V75.9531H469.992V77.1094H478.648V78.1562H468.508V74.9688H476.742V73.9375H468.492V72.875H478.211ZM478.18 64.6875V67.7188H470.086V68.7812H478.414V69.8281H468.617V66.7344H476.695V65.7344H468.586V64.6875H478.18ZM497.805 69.8281V71.0469H495.633V78.3125H494.148V64.3281H495.633V69.8281H497.805ZM486.727 65.6875V73.5625C488.68 73.5625 490.719 73.3984 492.945 72.9375L493.117 74.1875C490.727 74.6719 488.508 74.7969 486.414 74.7969H485.258V65.6875H486.727ZM505.742 65.5625V66.7812H500.648V69.4844H505.461V70.6719H500.648V73.8125C502.984 73.8047 504.711 73.7031 506.742 73.375L506.883 74.5781C504.727 74.9375 502.852 75.0156 500.273 75.0156H499.148V65.5625H505.742ZM509.461 64.3281V69.8438H511.711V71.0938H509.461V78.3281H507.977V64.3281H509.461ZM524.367 64.3281V78.3281H522.945V71.1562H521.148V77.6094H519.758V64.6094H521.148V69.9375H522.945V64.3281H524.367ZM514.523 65.9844V73.4531C515.82 73.4453 517.234 73.3438 518.82 73.0312L518.977 74.3281C517.055 74.6719 515.445 74.7656 513.945 74.7656H513.039V65.9844H514.523ZM529.961 65.375C532.055 65.375 533.539 67.2812 533.555 70.2812C533.539 73.2969 532.055 75.2031 529.961 75.2031C527.867 75.2031 526.367 73.2969 526.383 70.2812C526.367 67.2812 527.867 65.375 529.961 65.375ZM529.961 66.7031C528.68 66.7031 527.805 68.0781 527.805 70.2812C527.805 72.5 528.68 73.875 529.961 73.875C531.258 73.875 532.133 72.5 532.133 70.2812C532.133 68.0781 531.258 66.7031 529.961 66.7031ZM539.289 67.75V69.0156H537.117V71.9219H539.289V73.1406H537.117V78.3281H535.633V64.3281H537.117V67.75H539.289ZM546.961 66.6406V67.8438H540.008V66.6406H542.758V64.7344H544.227V66.6406H546.961ZM543.492 68.6875C545.273 68.6875 546.523 70.0156 546.539 71.9062C546.523 73.8125 545.273 75.1562 543.492 75.1562C541.742 75.1562 540.445 73.8125 540.461 71.9062C540.445 70.0156 541.742 68.6875 543.492 68.6875ZM543.492 69.9219C542.477 69.9219 541.773 70.75 541.773 71.9062C541.773 73.0938 542.477 73.8906 543.492 73.8906C544.492 73.8906 545.227 73.0938 545.227 71.9062C545.227 70.75 544.492 69.9219 543.492 69.9219ZM552.023 64.3281V78.3281H550.617V71.375H549.008V77.6719H547.602V64.6406H549.008V70.1562H550.617V64.3281H552.023ZM566.68 75.3438V76.5781H553.867V75.3438H556.93V71.6875C555.781 71.0547 555.086 70.0469 555.086 68.7969C555.086 66.5938 557.242 65.1406 560.242 65.1406C563.258 65.1406 565.414 66.5938 565.414 68.7969C565.414 70.0312 564.742 71.0234 563.617 71.6562V75.3438H566.68ZM560.242 66.3281C558.039 66.3281 556.523 67.2812 556.523 68.7969C556.523 70.2969 558.039 71.2812 560.242 71.2812C562.43 71.2812 563.977 70.2969 563.977 68.7969C563.977 67.2812 562.43 66.3281 560.242 66.3281ZM558.398 75.3438H562.117V72.2188C561.547 72.3672 560.914 72.4375 560.242 72.4375C559.586 72.4375 558.961 72.3672 558.398 72.2344V75.3438Z" fill="white"/>
</g>
<path d="M252.987 13.076C252.546 11.9215 253.612 10.7584 254.8 11.0978L275.717 17.0716C277.242 17.5072 277.136 19.7028 275.576 19.9893L264.913 21.9482L263.712 33.1757C263.544 34.7429 261.382 35.0242 260.819 33.552L252.987 13.076Z" fill="#663CE5"/>
<defs>
<filter id="filter0_d_2577_578" x="0" y="108.5" width="186" height="80" filterUnits="userSpaceOnUse" color-interpolation-filters="sRGB">
<feFlood flood-opacity="0" result="BackgroundImageFix"/>
<feColorMatrix in="SourceAlpha" type="matrix" values="0 0 0 0 0 0 0 0 0 0 0 0 0 0 0 0 0 0 127 0" result="hardAlpha"/>
<feOffset dy="2"/>
<feGaussianBlur stdDeviation="5"/>
<feComposite in2="hardAlpha" operator="out"/>
<feColorMatrix type="matrix" values="0 0 0 0 0.231239 0 0 0 0 0.231239 0 0 0 0 0.231239 0 0 0 0.23 0"/>
<feBlend mode="normal" in2="BackgroundImageFix" result="effect1_dropShadow_2577_578"/>
<feBlend mode="normal" in="SourceGraphic" in2="effect1_dropShadow_2577_578" result="shape"/>
</filter>
<filter id="filter1_d_2577_578" x="262" y="21.5" width="332" height="80" filterUnits="userSpaceOnUse" color-interpolation-filters="sRGB">
<feFlood flood-opacity="0" result="BackgroundImageFix"/>
<feColorMatrix in="SourceAlpha" type="matrix" values="0 0 0 0 0 0 0 0 0 0 0 0 0 0 0 0 0 0 127 0" result="hardAlpha"/>
<feOffset dy="2"/>
<feGaussianBlur stdDeviation="5"/>
<feComposite in2="hardAlpha" operator="out"/>
<feColorMatrix type="matrix" values="0 0 0 0 0.231239 0 0 0 0 0.231239 0 0 0 0 0.231239 0 0 0 0.23 0"/>
<feBlend mode="normal" in2="BackgroundImageFix" result="effect1_dropShadow_2577_578"/>
<feBlend mode="normal" in="SourceGraphic" in2="effect1_dropShadow_2577_578" result="shape"/>
</filter>
</defs>
</svg>
