<svg width="400" height="70" viewBox="0 0 400 70" fill="none" xmlns="http://www.w3.org/2000/svg">
<path opacity="0.2" d="M27 0C12.0883 0 0 12.0883 0 27C0 41.9117 12.0883 54 27 54H348.436L358.351 70L361.008 54H373C387.912 54 400 41.9117 400 27C400 12.0883 387.912 5.79834e-07 373 0H27Z" fill="#77797F"/>
<path d="M35.2656 20.2656V34.3906H33.5156V20.2656H35.2656ZM31.8281 21.6406V23.0625H30.4688V29.3906C31.1484 29.3438 31.8125 29.2812 32.4531 29.2031L32.5469 30.5C29.5156 30.9844 26.2031 31.0469 23.6094 31.0469L23.4375 29.625L25.1875 29.6094V23.0625H23.8125V21.6406H31.8281ZM26.8594 29.5625C27.4844 29.5547 28.125 29.5312 28.7656 29.5V23.0625H26.8594V29.5625ZM48.7656 26.8906V28.2812H38.8594V21.5H48.6562V22.9062H40.5781V26.8906H48.7656ZM50.2031 31.1562V32.5938H37.2969V31.1562H50.2031ZM53.3125 21.1719V23.25H55.6406V21.1719H57.25V27.9062H51.6719V21.1719H53.3125ZM53.3125 26.5312H55.6406V24.5938H53.3125V26.5312ZM63.2031 20.2812V28.7656H61.5469V25.2188H60.1406V28.6875H58.5156V20.5469H60.1406V23.7969H61.5469V20.2812H63.2031ZM63.2031 29.4844V34.3906H61.4688V30.8906H53.5312V29.4844H63.2031ZM79.8906 20.2656V23.5469H81.8594V24.9844H79.8906V28.5H78.1562V20.2656H79.8906ZM70.9531 21.0938V23.0156H74.25V21.0938H75.9688V27.75H69.2344V21.0938H70.9531ZM70.9531 26.375H74.25V24.3594H70.9531V26.375ZM79.9844 29.1875V30.5781H72.5156V32.8125H80.25V34.1875H70.7812V29.1875H79.9844ZM89 20.4844C92.2188 20.4844 94.0781 21.3438 94.0938 22.9062C94.0781 24.4844 92.2188 25.3281 89 25.3438C85.7812 25.3281 83.9062 24.4844 83.9062 22.9062C83.9062 21.3438 85.7812 20.4844 89 20.4844ZM89 21.7656C86.8438 21.7656 85.7188 22.1719 85.7344 22.9062C85.7188 23.6875 86.8438 24.0469 89 24.0469C91.1875 24.0469 92.2969 23.6875 92.2969 22.9062C92.2969 22.1719 91.1875 21.7656 89 21.7656ZM95.4531 26.0938V27.4844H82.5781V26.0938H95.4531ZM93.8438 28.4375V31.8906H85.8125V32.9375H94.2344V34.2656H84.1094V30.6562H92.1406V29.7188H84.0938V28.4375H93.8438ZM105.25 23.6562C105.234 26.1719 106.5 28.7344 108.688 29.7812L107.625 31.1719C106.094 30.3984 104.992 28.9062 104.391 27.1094C103.773 29.0312 102.617 30.625 101 31.4375L99.9375 30.0469C102.203 28.9688 103.5 26.2656 103.516 23.6562V21.4062H105.25V23.6562ZM111.266 20.2656V25.7969H113.438V27.2812H111.266V34.3906H109.531V20.2656H111.266ZM125.172 20.2812V23.7188H127.156V25.1719H125.172V28.6719H123.438V20.2812H125.172ZM125.172 29.2969V34.2188H116.031V29.2969H125.172ZM117.734 30.6562V32.8125H123.469V30.6562H117.734ZM121.016 21V25.1406H116.312V26.6562C118.711 26.6484 120.352 26.5703 122.281 26.25L122.469 27.625C120.359 28.0156 118.531 28.0781 115.734 28.0781H114.578V23.8281H119.312V22.3906H114.562V21H121.016ZM139.609 20.2656V34.4062H137.859V20.2656H139.609ZM132 21.2969C134.125 21.2969 135.672 23.2344 135.688 26.2812C135.672 29.3594 134.125 31.2812 132 31.2812C129.859 31.2812 128.312 29.3594 128.312 26.2812C128.312 23.2344 129.859 21.2969 132 21.2969ZM132 22.8594C130.797 22.8594 129.984 24.125 129.984 26.2812C129.984 28.4531 130.797 29.7188 132 29.7188C133.188 29.7188 134 28.4531 134 26.2812C134 24.125 133.188 22.8594 132 22.8594ZM148.688 28.5312V30.0469H150.547V28.5312H152.156V33.0156C153.812 32.3203 154.578 30.8906 154.578 29.5469V28.4219H156.312V29.5469C156.312 31.0156 157.062 32.4375 158.812 33.0312L157.922 34.3281C156.68 33.8828 155.875 33.0234 155.438 31.9531C154.961 32.9922 154.156 33.8516 152.984 34.3281L152.156 33.0938V34.2188H147.062V28.5312H148.688ZM148.688 32.8906H150.547V31.3438H148.688V32.8906ZM149.406 20.8438C151.227 20.8438 152.664 21.8594 153.031 23.3906H155.578V20.2656H157.312V27.75H155.578V24.8281H153.031C152.688 26.3984 151.234 27.4375 149.406 27.4375C147.234 27.4375 145.672 26.0781 145.672 24.125C145.672 22.1875 147.234 20.8438 149.406 20.8438ZM149.406 22.2812C148.188 22.2812 147.328 23 147.328 24.125C147.328 25.2656 148.188 26.0156 149.406 26.0156C150.594 26.0156 151.438 25.2656 151.453 24.125C151.438 23 150.594 22.2812 149.406 22.2812ZM163.172 21.2969C165.086 21.2969 166.5 22.8906 166.75 25.4688H169.438V20.2656H171.156V34.4062H169.438V26.875H166.766C166.578 29.6016 165.141 31.2812 163.172 31.2812C161.047 31.2812 159.547 29.3594 159.547 26.2812C159.547 23.2344 161.047 21.2969 163.172 21.2969ZM163.172 22.8594C162 22.8594 161.203 24.125 161.219 26.2812C161.203 28.4531 162 29.7188 163.172 29.7188C164.344 29.7188 165.125 28.4531 165.141 26.2812C165.125 24.125 164.344 22.8594 163.172 22.8594ZM189.812 28.4688V29.8438H176.938V28.4688H182.5V27.5625C180.047 27.4375 178.672 26.6875 178.672 25.4219C178.672 24.0156 180.375 23.2812 183.359 23.2812C186.344 23.2812 188.062 24.0156 188.062 25.4219C188.062 26.6875 186.68 27.4297 184.234 27.5625V28.4688H189.812ZM188.359 32.7344V34.1094H178.531V30.5781H180.266V32.7344H188.359ZM189.109 21.4844V22.7969H177.578V21.4844H182.5V20.1719H184.234V21.4844H189.109ZM183.359 24.5C181.391 24.5 180.438 24.7969 180.453 25.4219C180.438 26.0469 181.391 26.3438 183.359 26.3438C185.312 26.3438 186.281 26.0469 186.281 25.4219C186.281 24.7969 185.312 24.5 183.359 24.5ZM195.828 24.2812C195.828 26.4688 197.125 28.9531 199.359 29.9844L198.391 31.3594C196.797 30.6094 195.617 29.0938 194.984 27.3281C194.344 29.2656 193.109 30.9219 191.484 31.7031L190.469 30.3438C192.719 29.2812 194.078 26.625 194.094 24.2812V23.0938H191.016V21.6562H198.781V23.0938H195.828V24.2812ZM201.828 20.2656V25.7656H204V27.2188H201.828V34.3906H200.094V20.2656H201.828ZM220.109 20.9062V22.2969H216.016C216.172 23.625 217.898 24.8906 220.625 25.2188L219.969 26.5938C217.438 26.2891 215.57 25.1719 214.812 23.6406C214.055 25.1641 212.203 26.2891 209.672 26.5938L209.031 25.2188C211.758 24.8906 213.461 23.625 213.625 22.2969H209.562V20.9062H220.109ZM221.281 27.375V28.7812H215.828V31.3594H214.109V28.7812H208.375V27.375H221.281ZM219.859 32.7031V34.1094H209.938V30.0625H211.672V32.7031H219.859ZM233.969 20.2656V34.4062H232.219V20.2656H233.969ZM224.703 21.4219V24.9531H228.125V21.4219H229.844V31.0781H222.969V21.4219H224.703ZM224.703 29.6562H228.125V26.3125H224.703V29.6562ZM247.109 20.2656V25.8906H249.281V27.3281H247.109V34.3906H245.391V20.2656H247.109ZM244.297 22.4375V23.8281H235.969V22.4375H239.312V20.4688H241.047V22.4375H244.297ZM240.188 24.75C242.219 24.75 243.734 26.125 243.734 28.0781C243.734 30.0312 242.219 31.3906 240.188 31.3906C238.125 31.3906 236.609 30.0312 236.625 28.0781C236.609 26.125 238.125 24.75 240.188 24.75ZM240.188 26.1719C239.078 26.1719 238.281 26.9219 238.281 28.0781C238.281 29.2344 239.078 29.9688 240.188 29.9531C241.266 29.9688 242.062 29.2344 242.078 28.0781C242.062 26.9219 241.266 26.1719 240.188 26.1719ZM261.312 24.2656V25.6406H251.531V20.7812H253.25V24.2656H261.312ZM262.766 27.2812V28.6562H249.859V27.2812H262.766ZM261.406 32.6562V34.0625H251.406V29.9062H253.141V32.6562H261.406ZM275.891 20.2656V34.3906H274.203V20.2656H275.891ZM272.922 20.5469V33.7031H271.297V26.9219H268.578V25.5H271.297V20.5469H272.922ZM269.547 21.9219V23.3125H265.875V29.7031C267.547 29.6875 268.742 29.6172 270.125 29.3281L270.266 30.75C268.672 31.0781 267.266 31.1406 265.125 31.1562H264.172V21.9219H269.547ZM292.469 20.2812V24.7188H294.438V26.1562H292.469V30.8281H290.734V20.2812H292.469ZM289.719 21.8438V23.2344H281.344V21.8438H284.672V20.2656H286.406V21.8438H289.719ZM285.531 23.8125C287.562 23.8125 288.969 24.8906 288.984 26.5156C288.969 28.125 287.562 29.1875 285.531 29.1875C283.484 29.1875 282.062 28.125 282.062 26.5156C282.062 24.8906 283.484 23.8125 285.531 23.8125ZM285.531 25.1562C284.453 25.1562 283.75 25.6562 283.75 26.5156C283.75 27.3594 284.453 27.8594 285.531 27.8438C286.609 27.8594 287.328 27.3594 287.328 26.5156C287.328 25.6562 286.609 25.1562 285.531 25.1562ZM293.031 32.7031V34.1094H283.422V30H285.156V32.7031H293.031ZM307.344 20.2656V34.3906H305.688V20.2656H307.344ZM304.422 20.6094V33.7188H302.766V29H300.562V27.5781H302.766V25.4844H300.812C300.148 27.8281 298.672 29.8438 296.031 31.4062L295.016 30.1719C297.945 28.4453 299.289 26.2344 299.547 23.3906H295.766V21.9844H301.266C301.266 22.6953 301.219 23.3906 301.125 24.0625H302.766V20.6094H304.422ZM321.875 26.6719V27.9844H308.969V26.6719H321.875ZM320.312 28.8281V32.0469H312.219V33.0312H320.734V34.2344H310.484V30.9219H318.594V30.0469H310.469V28.8281H320.312ZM320.281 20.5781V23.7656H312.328V24.6875H320.531V25.875H310.609V22.6406H318.547V21.7812H310.562V20.5781H320.281ZM338.094 26.5625V27.9844H328.094V21.5H329.844V26.5625H338.094ZM339.516 31.1562V32.625H326.609V31.1562H339.516ZM352.172 20.2656V34.3906H350.453V29.0469H347.422C346.992 30.1328 346.406 31.1719 345.625 32.1406L344.203 31.2344C346.133 28.8438 346.773 26.2266 346.906 23.1719H345.125V21.75H348.547C348.547 22.4609 348.531 23.1719 348.484 23.875H350.453V20.2656H352.172ZM344.703 21.75C344.703 25.3906 344.078 28.5156 341.625 31.2031L340.266 30.2188C342.141 28.1641 342.867 25.9688 343.031 23.1719H340.828V21.75H344.703ZM347.891 27.6406H350.453V25.2656H348.359C348.25 26.0703 348.102 26.8672 347.891 27.6406ZM367.172 31.25V32.6719H354.266V31.25H357.25V27.6719C356.125 27.0312 355.445 26.0234 355.453 24.7656C355.438 22.5156 357.656 21.0312 360.688 21.0312C363.734 21.0312 365.953 22.5156 365.953 24.7656C365.953 26 365.297 26.9922 364.203 27.6406V31.25H367.172ZM360.688 22.4062C358.578 22.4062 357.141 23.2969 357.156 24.7656C357.141 26.2188 358.578 27.125 360.688 27.125C362.797 27.125 364.25 26.2188 364.25 24.7656C364.25 23.2969 362.797 22.4062 360.688 22.4062ZM358.969 31.25H362.438V28.2969C361.898 28.4219 361.312 28.4844 360.688 28.4844C360.078 28.4844 359.5 28.4219 358.969 28.3125V31.25ZM369.812 33.125C369.141 33.125 368.594 32.5781 368.594 31.9062C368.594 31.25 369.141 30.7031 369.812 30.7031C370.453 30.7031 371.016 31.25 371.016 31.9062C371.016 32.5781 370.453 33.125 369.812 33.125ZM374.172 33.125C373.5 33.125 372.953 32.5781 372.953 31.9062C372.953 31.25 373.5 30.7031 374.172 30.7031C374.812 30.7031 375.375 31.25 375.375 31.9062C375.375 32.5781 374.812 33.125 374.172 33.125Z" fill="white"/>
</svg>
