<svg width="400" height="70" viewBox="0 0 400 70" fill="none" xmlns="http://www.w3.org/2000/svg">
<path opacity="0.08" d="M373 0C387.912 0 400 12.0883 400 27C400 41.9117 387.912 54 373 54H51.5645L41.6494 70L38.9922 54H27C12.0883 54 0 41.9117 0 27C0 12.0883 12.0883 5.79834e-07 27 0H373Z" fill="#77797F"/>
<path d="M37.2031 20.2656V27.4688H35.4844V20.2656H37.2031ZM37.2344 28.125V31.7969H29.5938V32.8906H37.6562V34.2656H27.8906V30.5H35.5V29.4688H27.8594V28.125H37.2344ZM30.7344 21.7031C30.7344 23.5 31.9219 25.1875 34.1562 25.8594L33.3125 27.2031C31.6719 26.7031 30.5 25.6484 29.8594 24.2969C29.2188 25.7656 28.0156 26.9141 26.3281 27.4531L25.4531 26.0938C27.7344 25.3594 28.9375 23.5469 28.9375 21.7031V20.6094H30.7344V21.7031ZM52.1875 28.2656V29.6719H46.5625V34.375H44.8438V29.6719H39.2812V28.2656H52.1875ZM50.6094 20.9844V26.6094H40.8594V20.9844H50.6094ZM42.5625 22.375V25.25H48.875V22.375H42.5625ZM65.3125 20.2656V34.3906H63.6406V20.2656H65.3125ZM62.4062 20.5156V33.7031H60.75V26.9844H59.4062C59.2422 29.7344 58.0625 31.4375 56.3125 31.4219C54.4688 31.4375 53.2656 29.4844 53.2656 26.375C53.2656 23.2656 54.4688 21.3438 56.3125 21.3438C58.0234 21.3438 59.1875 22.9375 59.3906 25.5781H60.75V20.5156H62.4062ZM56.3125 22.9844C55.4219 22.9688 54.8594 24.1719 54.875 26.375C54.8594 28.5781 55.4219 29.7812 56.3125 29.7656C57.25 29.7812 57.8125 28.5781 57.8125 26.375C57.8125 24.1719 57.25 22.9688 56.3125 22.9844ZM72.1719 23.6562C72.1719 26.2812 73.4219 28.8594 75.6719 29.8438L74.625 31.2344C73.0234 30.4531 71.8984 28.9531 71.2969 27.1094C70.6797 29.0547 69.5312 30.6719 67.9062 31.5L66.8125 30.0938C69.1094 29.0156 70.3906 26.2969 70.4062 23.6562V21.4062H72.1719V23.6562ZM78.7969 20.2656V34.4062H77.0781V26.2344H74.1094V24.8281H77.0781V20.2656H78.7969ZM96.4219 20.2812V30.9688H94.6719V29.7344H91.9062V28.5156H94.6719V20.2812H96.4219ZM96.75 32.7031V34.1094H86.3906V29.9375H88.125V32.7031H96.75ZM84.5156 26.625C87.125 26.6094 90.625 26.5781 93.625 26.2031L93.7188 27.4531C92.5547 27.6484 91.3516 27.7812 90.1562 27.8594V30.5781H88.4219V27.9531C87.1016 28.0078 85.8438 28.0156 84.7344 28.0156L84.5156 26.625ZM89.125 20.7969C91.1875 20.7969 92.625 21.8125 92.6406 23.2969C92.625 24.8125 91.1875 25.7812 89.125 25.7812C87.0312 25.7812 85.5938 24.8125 85.5938 23.2969C85.5938 21.8125 87.0312 20.7969 89.125 20.7969ZM89.125 22.0781C88 22.0781 87.2344 22.5312 87.2344 23.2969C87.2344 24.0625 88 24.5156 89.125 24.5156C90.2031 24.5156 90.9688 24.0625 90.9844 23.2969C90.9688 22.5312 90.2031 22.0781 89.125 22.0781ZM109.469 20.2656V25.8906H111.641V27.3281H109.469V34.3906H107.75V20.2656H109.469ZM106.656 22.4375V23.8281H98.3281V22.4375H101.672V20.4688H103.406V22.4375H106.656ZM102.547 24.75C104.578 24.75 106.094 26.125 106.094 28.0781C106.094 30.0312 104.578 31.3906 102.547 31.3906C100.484 31.3906 98.9688 30.0312 98.9844 28.0781C98.9688 26.125 100.484 24.75 102.547 24.75ZM102.547 26.1719C101.438 26.1719 100.641 26.9219 100.641 28.0781C100.641 29.2344 101.438 29.9688 102.547 29.9531C103.625 29.9688 104.422 29.2344 104.438 28.0781C104.422 26.9219 103.625 26.1719 102.547 26.1719ZM123.672 24.2656V25.6406H113.891V20.7812H115.609V24.2656H123.672ZM125.125 27.2812V28.6562H112.219V27.2812H125.125ZM123.766 32.6562V34.0625H113.766V29.9062H115.5V32.6562H123.766ZM141.688 29.2812V34.3906H139.953V30.6562H132.062V29.2812H141.688ZM141.688 20.2656V28.6094H139.953V26.7344H136.641C135.969 27.4844 134.953 27.9375 133.781 27.9375C131.656 27.9375 130.047 26.5 130.047 24.4688C130.047 22.4688 131.656 21.0312 133.781 21.0469C134.945 21.0391 135.961 21.4766 136.625 22.2188H139.953V20.2656H141.688ZM133.781 22.5156C132.562 22.5156 131.703 23.2969 131.703 24.4688C131.703 25.6875 132.562 26.4531 133.781 26.4688C134.938 26.4531 135.812 25.6875 135.828 24.4688C135.812 23.2969 134.938 22.5156 133.781 22.5156ZM137.375 25.3281H139.953V23.6406H137.391C137.445 23.9062 137.484 24.1797 137.484 24.4688C137.484 24.7656 137.445 25.0547 137.375 25.3281ZM156.812 22.2812V23.7188H154.828V25.25H156.812V26.7031H154.828V28.8125H153.094V20.2812H154.828V22.2812H156.812ZM150.672 21.1406V25.2031H145.969V26.6875C148.367 26.6719 150.008 26.5859 151.938 26.2656L152.125 27.6562C150.016 28.0312 148.188 28.125 145.391 28.1094H144.234V23.8906H148.969V22.5156H144.219V21.1406H150.672ZM150.219 29.0781C153.125 29.0938 154.953 30.0781 154.969 31.75C154.953 33.4062 153.125 34.3594 150.219 34.3594C147.25 34.3594 145.438 33.4062 145.438 31.75C145.438 30.0781 147.25 29.0938 150.219 29.0781ZM150.219 30.4375C148.25 30.4375 147.125 30.9062 147.141 31.75C147.125 32.5938 148.25 33.0469 150.219 33.0469C152.172 33.0469 153.25 32.5938 153.25 31.75C153.25 30.9062 152.172 30.4375 150.219 30.4375ZM163.938 20.4844C167.156 20.4844 169.016 21.3438 169.031 22.9062C169.016 24.4844 167.156 25.3281 163.938 25.3438C160.719 25.3281 158.844 24.4844 158.844 22.9062C158.844 21.3438 160.719 20.4844 163.938 20.4844ZM163.938 21.7656C161.781 21.7656 160.656 22.1719 160.672 22.9062C160.656 23.6875 161.781 24.0469 163.938 24.0469C166.125 24.0469 167.234 23.6875 167.234 22.9062C167.234 22.1719 166.125 21.7656 163.938 21.7656ZM170.391 26.0938V27.4844H157.516V26.0938H170.391ZM168.781 28.4375V31.8906H160.75V32.9375H169.172V34.2656H159.047V30.6562H167.078V29.7188H159.031V28.4375H168.781ZM187.266 20.2656V34.3906H185.594V27.25H184.031V33.6719H182.406V20.5312H184.031V25.8281H185.594V20.2656H187.266ZM177.5 21.8906V29.3438C178.719 29.3203 180.055 29.2188 181.531 28.9219L181.703 30.4375C179.797 30.7812 178.188 30.875 176.688 30.875H175.75V21.8906H177.5ZM200.031 20.2656V25.7812H202.125V27.2344H200.031V34.3594H198.297V20.2656H200.031ZM196.297 21.7344C196.297 25.8906 194.578 29.5312 189.875 31.8438L188.891 30.5C192.328 28.7891 194.188 26.3828 194.547 23.1719H189.656V21.7344H196.297ZM217.656 20.2656V25.7812H219.75V27.2344H217.656V34.3594H215.922V20.2656H217.656ZM213.922 21.7344C213.922 25.8906 212.203 29.5312 207.5 31.8438L206.516 30.5C209.953 28.7891 211.812 26.3828 212.172 23.1719H207.281V21.7344H213.922ZM225.75 24.2812C225.75 26.5938 227.109 29.0312 229.391 29.9844L228.438 31.3594C226.766 30.6406 225.547 29.1562 224.906 27.3594C224.25 29.2969 223.016 30.9219 221.359 31.7031L220.359 30.3438C222.594 29.3125 223.984 26.6875 223.984 24.2812V23.0938H220.875V21.6562H228.844V23.0938H225.75V24.2812ZM232.172 20.2656V34.3906H230.422V20.2656H232.172ZM245.781 21.5625V22.9219C245.766 24.6719 245.766 26.6406 245.219 29.5938L243.469 29.4062C244.016 26.6562 244.016 24.6484 244.031 22.9531H235.594V21.5625H245.781ZM247.125 31.1406V32.5625H234.25V31.1406H239V26.2344H240.719V31.1406H247.125ZM253.094 29.4531C253.094 30.625 253.633 31.8594 254.844 32.625C256.07 31.8047 256.641 30.5234 256.656 29.4531V28.875H258.359V29.4531C258.344 30.9375 259.219 32.3125 261.078 32.9062L260.234 34.1719C258.859 33.7109 257.945 32.8125 257.453 31.6875C257 32.7969 256.164 33.7891 254.891 34.2969C253.547 33.8125 252.703 32.8594 252.266 31.7344C251.758 32.8203 250.859 33.7031 249.547 34.1719L248.688 32.9062C250.516 32.2656 251.391 30.8281 251.406 29.4531V28.875H253.094V29.4531ZM259.844 20.2812V28.2812H258.094V20.2812H259.844ZM252.141 21.0312C254.312 21.0312 255.938 22.4062 255.938 24.3906C255.938 26.3594 254.312 27.7344 252.141 27.7344C249.953 27.7344 248.328 26.3594 248.328 24.3906C248.328 22.4062 249.953 21.0312 252.141 21.0312ZM252.141 22.5C250.906 22.5 250.016 23.2344 250.031 24.3906C250.016 25.5469 250.906 26.2969 252.141 26.2969C253.359 26.2969 254.234 25.5469 254.234 24.3906C254.234 23.2344 253.359 22.5 252.141 22.5ZM273.344 24.2656V25.6406H263.562V20.7812H265.281V24.2656H273.344ZM274.797 27.2812V28.6562H261.891V27.2812H274.797ZM273.438 32.6562V34.0625H263.438V29.9062H265.172V32.6562H273.438ZM281.062 24.2812C281.062 26.5938 282.422 29.0312 284.703 29.9844L283.75 31.3594C282.078 30.6406 280.859 29.1562 280.219 27.3594C279.562 29.2969 278.328 30.9219 276.672 31.7031L275.672 30.3438C277.906 29.3125 279.297 26.6875 279.297 24.2812V23.0938H276.188V21.6562H284.156V23.0938H281.062V24.2812ZM287.484 20.2656V34.3906H285.734V20.2656H287.484ZM306.266 31.25V32.6719H293.359V31.25H298.922V28.1719H294.781V21.3594H304.781V28.1719H300.641V31.25H306.266ZM296.484 22.75V26.8125H303.062V22.75H296.484ZM320.094 31.2969V32.7188H307.188V31.2969H320.094ZM318.562 21.2656V25.8125H310.453V27.6562H318.891V29.0312H308.719V24.4219H316.844V22.6719H308.688V21.2656H318.562ZM327.266 21.2656C327.266 22.2891 327.117 23.2266 326.812 24.0781H328.547V20.5625H330.188V28.1562H328.547V25.4688H326.125C325.25 26.8281 323.859 27.9062 321.938 28.7188L321.078 27.4219C323.773 26.3672 325.172 24.7812 325.469 22.6719H321.75V21.2656H327.266ZM333.094 20.2812V28.3594H331.438V20.2812H333.094ZM326.141 29.5469C326.125 30.7266 326.664 31.9531 327.875 32.7344C329.102 31.8906 329.656 30.6016 329.672 29.5469V28.7969H331.375V29.5469C331.375 31.0156 332.25 32.4375 334.109 33.0156L333.266 34.2969C331.883 33.8203 330.977 32.9062 330.484 31.7656C330.031 32.8906 329.203 33.8828 327.906 34.4062C326.57 33.9062 325.734 32.9375 325.297 31.7969C324.797 32.8984 323.906 33.8125 322.594 34.2969L321.719 33.0156C323.562 32.3906 324.469 30.9219 324.469 29.5469V28.7969H326.141V29.5469ZM338.703 21.2969C340.617 21.2969 342.031 22.8906 342.281 25.4688H344.969V20.2656H346.688V34.4062H344.969V26.875H342.297C342.109 29.6016 340.672 31.2812 338.703 31.2812C336.578 31.2812 335.078 29.3594 335.078 26.2812C335.078 23.2344 336.578 21.2969 338.703 21.2969ZM338.703 22.8594C337.531 22.8594 336.734 24.125 336.75 26.2812C336.734 28.4531 337.531 29.7188 338.703 29.7188C339.875 29.7188 340.656 28.4531 340.672 26.2812C340.656 24.125 339.875 22.8594 338.703 22.8594ZM361.578 31.25V32.6719H348.672V31.25H351.656V27.6719C350.531 27.0312 349.852 26.0234 349.859 24.7656C349.844 22.5156 352.062 21.0312 355.094 21.0312C358.141 21.0312 360.359 22.5156 360.359 24.7656C360.359 26 359.703 26.9922 358.609 27.6406V31.25H361.578ZM355.094 22.4062C352.984 22.4062 351.547 23.2969 351.562 24.7656C351.547 26.2188 352.984 27.125 355.094 27.125C357.203 27.125 358.656 26.2188 358.656 24.7656C358.656 23.2969 357.203 22.4062 355.094 22.4062ZM353.375 31.25H356.844V28.2969C356.305 28.4219 355.719 28.4844 355.094 28.4844C354.484 28.4844 353.906 28.4219 353.375 28.3125V31.25ZM364.219 33.125C363.547 33.125 363 32.5781 363 31.9062C363 31.25 363.547 30.7031 364.219 30.7031C364.859 30.7031 365.422 31.25 365.422 31.9062C365.422 32.5781 364.859 33.125 364.219 33.125ZM368.578 33.125C367.906 33.125 367.359 32.5781 367.359 31.9062C367.359 31.25 367.906 30.7031 368.578 30.7031C369.219 30.7031 369.781 31.25 369.781 31.9062C369.781 32.5781 369.219 33.125 368.578 33.125ZM372.938 33.125C372.266 33.125 371.719 32.5781 371.719 31.9062C371.719 31.25 372.266 30.7031 372.938 30.7031C373.578 30.7031 374.141 31.25 374.141 31.9062C374.141 32.5781 373.578 33.125 372.938 33.125Z" fill="white"/>
</svg>
