<svg width="400" height="70" viewBox="0 0 400 70" fill="none" xmlns="http://www.w3.org/2000/svg">
<path opacity="0.4" d="M373 0C387.912 0 400 12.0883 400 27C400 41.9117 387.912 54 373 54H51.5645L41.6494 70L38.9922 54H27C12.0883 54 0 41.9117 0 27C0 12.0883 12.0883 5.79834e-07 27 0H373Z" fill="#77797F"/>
<path d="M41.2969 20.2656V28.6562H39.5625V25.2031H37.1562V23.7812H39.5625V20.2656H41.2969ZM36.5156 29.0156C39.5156 29.0156 41.3438 30 41.3438 31.7031C41.3438 33.4062 39.5156 34.3906 36.5156 34.3906C33.5312 34.3906 31.7031 33.4062 31.7188 31.7031C31.7031 30 33.5312 29.0156 36.5156 29.0156ZM36.5156 30.3438C34.5469 30.3438 33.4375 30.8125 33.4375 31.7031C33.4375 32.5781 34.5469 33.0469 36.5156 33.0469C38.4844 33.0469 39.6094 32.5781 39.6094 31.7031C39.6094 30.8125 38.4844 30.3438 36.5156 30.3438ZM34.6562 22.6875C34.6562 24.4062 35.7969 26.1406 37.9844 26.875L37.1094 28.25C35.5391 27.7188 34.4219 26.6406 33.8125 25.3125C33.1875 26.8203 32.0078 28.0234 30.3281 28.625L29.4219 27.25C31.6875 26.4688 32.8906 24.5625 32.8906 22.7031V22.5938H29.9531V21.1875H37.5781V22.5938H34.6562V22.6875ZM56.2031 31.2656V32.6875H43.2969V31.2656H48.8594V28.5156H44.7188V21.2031H46.4531V23.5156H53V21.2031H54.7344V28.5156H50.5781V31.2656H56.2031ZM46.4531 27.1094H53V24.9062H46.4531V27.1094ZM68.5625 24.2656V25.6406H58.7812V20.7812H60.5V24.2656H68.5625ZM70.0156 27.2812V28.6562H57.1094V27.2812H70.0156ZM68.6562 32.6562V34.0625H58.6562V29.9062H60.3906V32.6562H68.6562ZM85.8906 20.2656V23.3125H87.8594V24.75H85.8906V27.375H84.1562V20.2656H85.8906ZM81.9219 21.1719V27H75.2344V21.1719H81.9219ZM76.9375 22.5312V25.6406H80.2188V22.5312H76.9375ZM77.7969 28.5781V32.5781C78.6094 32.5391 79.4453 32.4219 80.25 32.1562L80.5 33.5156C79.25 33.9531 78.0469 34 76.8438 34H76.0938V28.5781H77.7969ZM87.125 28.7344V29.9844H80.0156V28.7344H82.7344V27.625H84.4375V28.7344H87.125ZM83.5625 30.4062C85.1562 30.4062 86.2656 31.1562 86.2656 32.3906C86.2656 33.5938 85.1562 34.3594 83.5625 34.3594C81.9531 34.3594 80.8594 33.5938 80.875 32.3906C80.8594 31.1562 81.9531 30.4062 83.5625 30.4062ZM83.5625 31.5938C82.8906 31.5938 82.4062 31.875 82.4219 32.3906C82.4062 32.9062 82.8906 33.1875 83.5625 33.1875C84.2188 33.1875 84.7031 32.9062 84.7031 32.3906C84.7031 31.875 84.2188 31.5938 83.5625 31.5938ZM101.453 27.5625V28.9531H88.5781V27.5625H101.453ZM100 32.7031V34.1094H90.1719V30H91.9062V32.7031H100ZM95 20.7188C98.0781 20.7188 100.078 21.7969 100.094 23.5781C100.078 25.375 98.0781 26.4688 95 26.4688C91.9219 26.4688 89.9062 25.375 89.9062 23.5781C89.9062 21.7969 91.9219 20.7188 95 20.7188ZM95 22.1094C92.9531 22.1094 91.7031 22.6406 91.7188 23.5781C91.7031 24.5312 92.9531 25.0625 95 25.0469C97.0625 25.0625 98.2969 24.5312 98.2969 23.5781C98.2969 22.6406 97.0625 22.1094 95 22.1094ZM114.594 20.2656V34.3906H112.906V20.2656H114.594ZM111.625 20.5469V33.7031H110V26.9219H107.281V25.5H110V20.5469H111.625ZM108.25 21.9219V23.3125H104.578V29.7031C106.25 29.6875 107.445 29.6172 108.828 29.3281L108.969 30.75C107.375 31.0781 105.969 31.1406 103.828 31.1562H102.875V21.9219H108.25ZM118.984 31.8906L117.672 36.2656H116.188L117 31.8906H118.984ZM127.984 21.2969C129.898 21.2969 131.312 22.8906 131.562 25.4688H134.25V20.2656H135.969V34.4062H134.25V26.875H131.578C131.391 29.6016 129.953 31.2812 127.984 31.2812C125.859 31.2812 124.359 29.3594 124.359 26.2812C124.359 23.2344 125.859 21.2969 127.984 21.2969ZM127.984 22.8594C126.812 22.8594 126.016 24.125 126.031 26.2812C126.016 28.4531 126.812 29.7188 127.984 29.7188C129.156 29.7188 129.938 28.4531 129.953 26.2812C129.938 24.125 129.156 22.8594 127.984 22.8594ZM149.703 20.2656V34.4062H147.953V20.2656H149.703ZM145.641 21.5469V22.9688H140.578V29.5312C143.18 29.5234 144.812 29.4453 146.688 29.1094L146.859 30.5469C144.844 30.9219 143.016 31 140.031 31H138.828V21.5469H145.641ZM157 23.6562C157 26.2812 158.25 28.8594 160.5 29.8438L159.453 31.2344C157.852 30.4531 156.727 28.9531 156.125 27.1094C155.508 29.0547 154.359 30.6719 152.734 31.5L151.641 30.0938C153.938 29.0156 155.219 26.2969 155.234 23.6562V21.4062H157V23.6562ZM163.625 20.2656V34.4062H161.906V26.2344H158.938V24.8281H161.906V20.2656H163.625ZM178.5 28.4844V29.8594H172.875V34.3906H171.156V29.8594H165.594V28.4844H178.5ZM168.875 20.8281V22.5625H175.188V20.8281H176.938V27.0156H167.156V20.8281H168.875ZM168.875 25.6094H175.188V23.9375H168.875V25.6094ZM191.281 20.2656V34.4062H189.562V26.7812H186.906V25.375H189.562V20.2656H191.281ZM186.688 21.4844V22.9062H181.828V25.4375H186.125V26.8125H181.828V29.7188C183.977 29.7109 185.586 29.6406 187.406 29.3438L187.578 30.75C185.516 31.0625 183.719 31.1406 181.188 31.1562H180.078V21.4844H186.688ZM202.406 23.6562C202.391 26.25 203.75 28.8438 206.047 29.8281L205.016 31.2188C203.391 30.4688 202.195 28.9688 201.547 27.125C200.898 29.1172 199.688 30.7422 197.969 31.5469L196.906 30.0938C199.266 29.0781 200.641 26.375 200.641 23.6562V21.4062H202.406V23.6562ZM208.812 20.2656V34.4062H207.062V20.2656H208.812ZM215.953 22.7188C215.953 24.4531 217.078 26.1719 219.297 26.9062L218.422 28.25C216.844 27.7266 215.719 26.6641 215.109 25.3438C214.477 26.7891 213.305 27.9375 211.656 28.5L210.734 27.1562C213.016 26.4062 214.203 24.5781 214.203 22.7188V22.5469H211.219V21.1562H218.891V22.5469H215.953V22.7188ZM222.031 20.2656V23.7969H224V25.25H222.031V28.7812H220.297V20.2656H222.031ZM222.031 29.4375V34.3906H220.297V30.8281H212.625V29.4375H222.031ZM231.609 22.5156V23.9062H224.688V22.5156H227.312V20.6719H229.031V22.5156H231.609ZM228.172 24.6562C229.969 24.6562 231.25 26.0156 231.25 27.9375C231.25 29.8906 229.969 31.2656 228.172 31.2656C226.391 31.2656 225.078 29.8906 225.094 27.9375C225.078 26.0156 226.391 24.6562 228.172 24.6562ZM228.172 26.0938C227.25 26.0938 226.609 26.8281 226.625 27.9375C226.609 29.0781 227.25 29.7969 228.172 29.7812C229.078 29.7969 229.719 29.0781 229.719 27.9375C229.719 26.8281 229.078 26.0938 228.172 26.0938ZM236.859 20.2656V34.3906H235.203V27.4844H233.828V33.75H232.203V20.5625H233.828V26.0781H235.203V20.2656H236.859ZM242.344 21.2969C244.469 21.2969 246 23.2344 246.016 26.2812C246 29.3594 244.469 31.2812 242.344 31.2812C240.203 31.2812 238.656 29.3594 238.672 26.2812C238.656 23.2344 240.203 21.2969 242.344 21.2969ZM242.344 22.8594C241.156 22.8594 240.344 24.125 240.344 26.2812C240.344 28.4531 241.156 29.7188 242.344 29.7188C243.547 29.7188 244.344 28.4531 244.344 26.2812C244.344 24.125 243.547 22.8594 242.344 22.8594ZM251.703 23.6406V25.0938H249.609V27.8125H251.703V29.2344H249.609V34.3906H247.875V20.2656H249.609V23.6406H251.703ZM267.312 20.2344V23.4219H269.297V24.8281H267.312V27.9375H265.578V20.2344H267.312ZM267.312 28.5625V31.9688H259.812V32.9688H267.75V34.2656H258.094V30.7656H265.578V29.8281H258.078V28.5625H267.312ZM264.562 21.4062V22.7344H256.188V21.4062H259.516V20.1562H261.25V21.4062H264.562ZM260.375 23.1719C262.469 23.1875 263.812 24.0781 263.828 25.4844C263.812 26.9375 262.469 27.7969 260.375 27.7969C258.281 27.7969 256.906 26.9375 256.906 25.4844C256.906 24.0781 258.281 23.1875 260.375 23.1719ZM260.375 24.4219C259.281 24.4219 258.594 24.8125 258.594 25.4844C258.594 26.1719 259.281 26.5469 260.375 26.5469C261.469 26.5469 262.172 26.1719 262.172 25.4844C262.172 24.8125 261.469 24.4219 260.375 24.4219ZM275.328 24.2812C275.328 26.5938 276.688 29.0312 278.969 29.9844L278.016 31.3594C276.344 30.6406 275.125 29.1562 274.484 27.3594C273.828 29.2969 272.594 30.9219 270.938 31.7031L269.938 30.3438C272.172 29.3125 273.562 26.6875 273.562 24.2812V23.0938H270.453V21.6562H278.422V23.0938H275.328V24.2812ZM281.75 20.2656V34.3906H280V20.2656H281.75ZM300.531 31.25V32.6719H287.625V31.25H293.188V28.1719H289.047V21.3594H299.047V28.1719H294.906V31.25H300.531ZM290.75 22.75V26.8125H297.328V22.75H290.75ZM314.359 31.2969V32.7188H301.453V31.2969H314.359ZM312.828 21.2656V25.8125H304.719V27.6562H313.156V29.0312H302.984V24.4219H311.109V22.6719H302.953V21.2656H312.828ZM321.531 21.2656C321.531 22.2891 321.383 23.2266 321.078 24.0781H322.812V20.5625H324.453V28.1562H322.812V25.4688H320.391C319.516 26.8281 318.125 27.9062 316.203 28.7188L315.344 27.4219C318.039 26.3672 319.438 24.7812 319.734 22.6719H316.016V21.2656H321.531ZM327.359 20.2812V28.3594H325.703V20.2812H327.359ZM320.406 29.5469C320.391 30.7266 320.93 31.9531 322.141 32.7344C323.367 31.8906 323.922 30.6016 323.938 29.5469V28.7969H325.641V29.5469C325.641 31.0156 326.516 32.4375 328.375 33.0156L327.531 34.2969C326.148 33.8203 325.242 32.9062 324.75 31.7656C324.297 32.8906 323.469 33.8828 322.172 34.4062C320.836 33.9062 320 32.9375 319.562 31.7969C319.062 32.8984 318.172 33.8125 316.859 34.2969L315.984 33.0156C317.828 32.3906 318.734 30.9219 318.734 29.5469V28.7969H320.406V29.5469ZM332.969 21.2969C334.883 21.2969 336.297 22.8906 336.547 25.4688H339.234V20.2656H340.953V34.4062H339.234V26.875H336.562C336.375 29.6016 334.938 31.2812 332.969 31.2812C330.844 31.2812 329.344 29.3594 329.344 26.2812C329.344 23.2344 330.844 21.2969 332.969 21.2969ZM332.969 22.8594C331.797 22.8594 331 24.125 331.016 26.2812C331 28.4531 331.797 29.7188 332.969 29.7188C334.141 29.7188 334.922 28.4531 334.938 26.2812C334.922 24.125 334.141 22.8594 332.969 22.8594ZM355.844 31.25V32.6719H342.938V31.25H345.922V27.6719C344.797 27.0312 344.117 26.0234 344.125 24.7656C344.109 22.5156 346.328 21.0312 349.359 21.0312C352.406 21.0312 354.625 22.5156 354.625 24.7656C354.625 26 353.969 26.9922 352.875 27.6406V31.25H355.844ZM349.359 22.4062C347.25 22.4062 345.812 23.2969 345.828 24.7656C345.812 26.2188 347.25 27.125 349.359 27.125C351.469 27.125 352.922 26.2188 352.922 24.7656C352.922 23.2969 351.469 22.4062 349.359 22.4062ZM347.641 31.25H351.109V28.2969C350.57 28.4219 349.984 28.4844 349.359 28.4844C348.75 28.4844 348.172 28.4219 347.641 28.3125V31.25ZM358.484 33.125C357.812 33.125 357.266 32.5781 357.266 31.9062C357.266 31.25 357.812 30.7031 358.484 30.7031C359.125 30.7031 359.688 31.25 359.688 31.9062C359.688 32.5781 359.125 33.125 358.484 33.125ZM362.844 33.125C362.172 33.125 361.625 32.5781 361.625 31.9062C361.625 31.25 362.172 30.7031 362.844 30.7031C363.484 30.7031 364.047 31.25 364.047 31.9062C364.047 32.5781 363.484 33.125 362.844 33.125ZM367.203 33.125C366.531 33.125 365.984 32.5781 365.984 31.9062C365.984 31.25 366.531 30.7031 367.203 30.7031C367.844 30.7031 368.406 31.25 368.406 31.9062C368.406 32.5781 367.844 33.125 367.203 33.125Z" fill="white"/>
</svg>
