<svg width="400" height="70" viewBox="0 0 400 70" fill="none" xmlns="http://www.w3.org/2000/svg">
<path opacity="0.1" d="M373 0C387.912 0 400 12.0883 400 27C400 41.9117 387.912 54 373 54H51.5645L41.6494 70L38.9922 54H27C12.0883 54 0 41.9117 0 27C0 12.0883 12.0883 5.79834e-07 27 0H373Z" fill="#77797F"/>
<path d="M29.2812 29.8281C30.0625 29.8359 31.0391 29.8281 32.0781 29.7969V27.5938C30.6094 27.2891 29.6406 26.1484 29.6562 24.5938C29.6406 22.7812 30.9844 21.5469 32.9062 21.5469C34.8281 21.5469 36.1719 22.7812 36.1719 24.5938C36.1719 26.1484 35.2031 27.2891 33.7344 27.5938V29.7344C34.6797 29.6797 35.6094 29.6016 36.4219 29.4844L36.5312 30.75C34.2656 31.1719 31.3281 31.25 29.5 31.25L29.2812 29.8281ZM41.625 20.2656V34.3906H39.9844V27.4219H38.6562V33.7031H37.0312V20.5312H38.6562V25.9688H39.9844V20.2656H41.625ZM32.9062 22.9375C31.9219 22.9375 31.2188 23.5938 31.2188 24.5938C31.2188 25.6406 31.9219 26.25 32.9062 26.25C33.875 26.25 34.5781 25.6406 34.5781 24.5938C34.5781 23.5938 33.875 22.9375 32.9062 22.9375ZM58.8438 20.2656V34.4062H57.0938V20.2656H58.8438ZM51.2344 21.2969C53.3594 21.2969 54.9062 23.2344 54.9219 26.2812C54.9062 29.3594 53.3594 31.2812 51.2344 31.2812C49.0938 31.2812 47.5469 29.3594 47.5469 26.2812C47.5469 23.2344 49.0938 21.2969 51.2344 21.2969ZM51.2344 22.8594C50.0312 22.8594 49.2188 24.125 49.2188 26.2812C49.2188 28.4531 50.0312 29.7188 51.2344 29.7188C52.4219 29.7188 53.2344 28.4531 53.2344 26.2812C53.2344 24.125 52.4219 22.8594 51.2344 22.8594ZM72.75 20.2656V27.9375H71.0156V24.2344H68.6094V22.8281H71.0156V20.2656H72.75ZM73 28.6562V29.9688H63.0312V28.6562H67.1562V27.5156H68.8906V28.6562H73ZM68.0156 30.4219C70.5625 30.4219 72.0469 31.0938 72.0469 32.3906C72.0469 33.7031 70.5625 34.375 68.0156 34.375C65.4688 34.375 64 33.7031 64 32.3906C64 31.0938 65.4688 30.4219 68.0156 30.4219ZM68.0156 31.625C66.4531 31.625 65.6719 31.9062 65.6875 32.3906C65.6719 32.9219 66.4531 33.1719 68.0156 33.1719C69.5781 33.1719 70.3594 32.9219 70.3594 32.3906C70.3594 31.9062 69.5781 31.625 68.0156 31.625ZM67.8438 20.8906V24.6094H63.2188V25.8438C65.4844 25.8359 67.0547 25.7812 68.8594 25.4375L69.0156 26.7969C66.9844 27.1406 65.2344 27.1875 62.5938 27.1875H61.4688V23.375H66.1094V22.2031H61.4531V20.8906H67.8438ZM86.9375 20.2656V34.3906H85.2812V20.2656H86.9375ZM83.9375 20.6094V33.7188H82.2969V27.2188H79.7812C78.9531 28.8438 77.625 30.25 75.625 31.4062L74.6406 30.1719C77.5703 28.4453 78.9062 26.2344 79.1719 23.3906H75.3594V21.9844H80.8906C80.8906 23.3516 80.7266 24.6328 80.3438 25.8281H82.2969V20.6094H83.9375ZM104.125 20.2656V34.4062H102.375V20.2656H104.125ZM100.062 21.5469V22.9688H95V29.5312C97.6016 29.5234 99.2344 29.4453 101.109 29.1094L101.281 30.5469C99.2656 30.9219 97.4375 31 94.4531 31H93.25V21.5469H100.062ZM111.266 24.2812C111.266 26.4688 112.562 28.9531 114.797 29.9844L113.828 31.3594C112.234 30.6094 111.055 29.0938 110.422 27.3281C109.781 29.2656 108.547 30.9219 106.922 31.7031L105.906 30.3438C108.156 29.2812 109.516 26.625 109.531 24.2812V23.0938H106.453V21.6562H114.219V23.0938H111.266V24.2812ZM117.266 20.2656V25.7656H119.438V27.2188H117.266V34.3906H115.531V20.2656H117.266ZM131.797 20.2812V30.4844H130.047V20.2812H131.797ZM132.188 32.7031V34.1094H122.453V29.4531H124.203V32.7031H132.188ZM124.094 21.2031C126.234 21.2031 127.891 22.6875 127.891 24.7344C127.891 26.8281 126.234 28.2812 124.094 28.2812C121.938 28.2812 120.281 26.8281 120.281 24.7344C120.281 22.6875 121.938 21.2031 124.094 21.2031ZM124.094 22.7188C122.891 22.7188 121.969 23.5156 121.984 24.7344C121.969 25.9844 122.891 26.7656 124.094 26.7656C125.266 26.7656 126.188 25.9844 126.188 24.7344C126.188 23.5156 125.266 22.7188 124.094 22.7188ZM149.734 20.2812V28.9844H148.078V25.4062H146.734V28.8125H145.109V20.4844H146.734V23.9844H148.078V20.2812H149.734ZM144.609 21.7188V23.0938H137.578V21.7188H140.25V20.3438H141.969V21.7188H144.609ZM141.109 23.625C142.906 23.6406 144.172 24.6094 144.188 26.0781C144.172 27.5312 142.906 28.5312 141.109 28.5312C139.344 28.5312 138.062 27.5312 138.078 26.0781C138.062 24.6094 139.344 23.6406 141.109 23.625ZM141.109 24.8906C140.234 24.8906 139.625 25.3125 139.625 26.0781C139.625 26.8125 140.219 27.2656 141.109 27.2656C142 27.2656 142.609 26.8125 142.609 26.0781C142.609 25.3125 142 24.8906 141.109 24.8906ZM142.922 29.7656C142.922 30.8594 143.445 31.9844 144.625 32.6875C145.82 31.9375 146.375 30.75 146.391 29.7656V29.4219H148.109V29.7656C148.109 31.1094 149 32.4062 150.844 32.9062L150.031 34.2188C148.648 33.7812 147.727 32.9062 147.234 31.8125C146.789 32.8906 145.961 33.8516 144.656 34.3438C143.328 33.875 142.492 32.9688 142.047 31.8906C141.531 32.9219 140.609 33.7734 139.297 34.2188L138.484 32.9062C140.297 32.3594 141.203 31.0312 141.203 29.7656V29.4219H142.922V29.7656ZM162.922 24.2656V25.6406H153.141V20.7812H154.859V24.2656H162.922ZM164.375 27.2812V28.6562H151.469V27.2812H164.375ZM163.016 32.6562V34.0625H153.016V29.9062H154.75V32.6562H163.016ZM170.641 24.2812C170.641 26.5938 172 29.0312 174.281 29.9844L173.328 31.3594C171.656 30.6406 170.438 29.1562 169.797 27.3594C169.141 29.2969 167.906 30.9219 166.25 31.7031L165.25 30.3438C167.484 29.3125 168.875 26.6875 168.875 24.2812V23.0938H165.766V21.6562H173.734V23.0938H170.641V24.2812ZM177.062 20.2656V34.3906H175.312V20.2656H177.062ZM194.359 24.2344V25.625H190.25V27.4531H195.828V28.8594H182.938V27.4531H188.516V25.625H184.609V20.7188H186.328V24.2344H194.359ZM194.484 32.7031V34.1094H184.5V29.8438H186.219V32.7031H194.484ZM208.531 20.2656V34.4062H206.812V20.2656H208.531ZM204.188 21.5V26.7969H199.328V29.6406C201.555 29.625 203.477 29.5156 205.672 29.1406L205.828 30.5625C203.422 30.9844 201.312 31.0625 198.781 31.0625H197.547V25.4219H202.422V22.9062H197.531V21.5H204.188ZM215.781 22.6875C215.781 24.4062 216.922 26.1406 219.109 26.875L218.234 28.2188C216.656 27.7031 215.539 26.6328 214.922 25.3125C214.305 26.7891 213.125 27.9766 211.453 28.5312L210.562 27.1562C212.812 26.4219 214.016 24.5469 214.016 22.7031V22.5156H211.078V21.125H218.703V22.5156H215.781V22.6875ZM222.422 29.3594V34.3906H220.688V30.75H212.797V29.3594H222.422ZM222.422 20.2656V28.6875H220.688V25.1875H218.281V23.7656H220.688V20.2656H222.422ZM230.844 21.0625C233.828 21.0625 236.109 22.6406 236.109 25.0469C236.109 27.4844 233.828 29.0625 230.844 29.0625C227.875 29.0625 225.594 27.4844 225.609 25.0469C225.594 22.6406 227.875 21.0625 230.844 21.0625ZM230.844 22.4688C228.797 22.4531 227.281 23.4844 227.281 25.0469C227.281 26.6406 228.797 27.6406 230.844 27.6406C232.906 27.6406 234.406 26.6406 234.406 25.0469C234.406 23.4844 232.906 22.4531 230.844 22.4688ZM237.328 31.1875V32.6094H224.422V31.1875H237.328ZM251.156 31.3125V32.75H238.25V31.3125H243.812V29.0156H239.781V24.3906H247.906V22.6406H239.75V21.2344H249.625V25.7656H241.516V27.5938H249.953V29.0156H245.531V31.3125H251.156ZM267.703 20.2656V27.5H265.969V23.9219H263.156V22.5312H265.969V20.2656H267.703ZM267.703 28.1094V31.7656H260.125V32.8438H268.156V34.2188H258.422V30.4688H265.984V29.4688H258.406V28.1094H267.703ZM261 21.8594C261 23.5938 262.141 25.25 264.328 25.9219L263.406 27.2656C261.875 26.75 260.766 25.7578 260.156 24.4688C259.531 25.9141 258.375 27.0312 256.703 27.5781L255.797 26.1875C258.062 25.5 259.25 23.7656 259.25 21.8594V20.7344H261V21.8594ZM281.531 20.2656V28.5781H279.797V26.625H276.953V27.7188H270.312V21.3281H276.953V22.4219H279.797V20.2656H281.531ZM272.047 22.7031V26.3281H275.234V22.7031H272.047ZM276.75 28.9531C279.75 28.9531 281.578 29.9531 281.578 31.6719C281.578 33.3906 279.75 34.375 276.75 34.375C273.766 34.375 271.938 33.3906 271.953 31.6719C271.938 29.9531 273.766 28.9531 276.75 28.9531ZM276.75 30.2812C274.781 30.2812 273.672 30.7656 273.672 31.6719C273.672 32.5469 274.781 33.0312 276.75 33.0312C278.719 33.0312 279.844 32.5469 279.844 31.6719C279.844 30.7656 278.719 30.2812 276.75 30.2812ZM276.953 25.2188H279.797V23.7969H276.953V25.2188ZM294.594 20.2656V25.8906H296.766V27.3281H294.594V34.3906H292.875V20.2656H294.594ZM291.781 22.4375V23.8281H283.453V22.4375H286.797V20.4688H288.531V22.4375H291.781ZM287.672 24.75C289.703 24.75 291.219 26.125 291.219 28.0781C291.219 30.0312 289.703 31.3906 287.672 31.3906C285.609 31.3906 284.094 30.0312 284.109 28.0781C284.094 26.125 285.609 24.75 287.672 24.75ZM287.672 26.1719C286.562 26.1719 285.766 26.9219 285.766 28.0781C285.766 29.2344 286.562 29.9688 287.672 29.9531C288.75 29.9688 289.547 29.2344 289.562 28.0781C289.547 26.9219 288.75 26.1719 287.672 26.1719ZM309.156 20.2656V34.3906H307.406V20.2656H309.156ZM304.938 21.7656C304.938 25.9688 303.312 29.5469 298.359 31.8906L297.453 30.5C301.148 28.7422 302.867 26.3516 303.172 23.1406H298.172V21.7656H304.938ZM318.844 21.2969C320.758 21.2969 322.172 22.8906 322.422 25.4688H325.109V20.2656H326.828V34.4062H325.109V26.875H322.438C322.25 29.6016 320.812 31.2812 318.844 31.2812C316.719 31.2812 315.219 29.3594 315.219 26.2812C315.219 23.2344 316.719 21.2969 318.844 21.2969ZM318.844 22.8594C317.672 22.8594 316.875 24.125 316.891 26.2812C316.875 28.4531 317.672 29.7188 318.844 29.7188C320.016 29.7188 320.797 28.4531 320.812 26.2812C320.797 24.125 320.016 22.8594 318.844 22.8594ZM340.641 20.2656V34.4062H338.906V28.6094H336.328V27.1875H338.906V24.7656H336.375V23.3438H338.906V20.2656H340.641ZM335.578 21.4844V26.7656H331.047V29.7656C332.914 29.75 334.539 29.6719 336.438 29.3906L336.578 30.8125C334.406 31.1562 332.609 31.2031 330.422 31.2031H329.328V25.4062H333.875V22.875H329.281V21.4844H335.578ZM354.562 20.2812V34.375H352.797V31.1406H349.797V29.8281H352.797V20.2812H354.562ZM342.578 27.5312C345.234 27.5312 348.766 27.5156 351.828 27.0938L351.938 28.375C350.641 28.6016 349.305 28.7344 348 28.8125V33.9531H346.25V28.9062C345.016 28.9453 343.844 28.9531 342.797 28.9531L342.578 27.5312ZM347.219 20.8906C349.297 20.8906 350.812 22.0625 350.812 23.75C350.812 25.4688 349.297 26.5938 347.219 26.5938C345.094 26.5938 343.594 25.4688 343.594 23.75C343.594 22.0625 345.094 20.8906 347.219 20.8906ZM347.219 22.2188C346.031 22.2188 345.234 22.8281 345.234 23.75C345.234 24.7031 346.031 25.2656 347.219 25.2656C348.344 25.2656 349.156 24.7031 349.156 23.75C349.156 22.8281 348.344 22.2188 347.219 22.2188ZM369.375 31.25V32.6719H356.469V31.25H359.453V27.6719C358.328 27.0312 357.648 26.0234 357.656 24.7656C357.641 22.5156 359.859 21.0312 362.891 21.0312C365.938 21.0312 368.156 22.5156 368.156 24.7656C368.156 26 367.5 26.9922 366.406 27.6406V31.25H369.375ZM362.891 22.4062C360.781 22.4062 359.344 23.2969 359.359 24.7656C359.344 26.2188 360.781 27.125 362.891 27.125C365 27.125 366.453 26.2188 366.453 24.7656C366.453 23.2969 365 22.4062 362.891 22.4062ZM361.172 31.25H364.641V28.2969C364.102 28.4219 363.516 28.4844 362.891 28.4844C362.281 28.4844 361.703 28.4219 361.172 28.3125V31.25ZM372.016 33.125C371.344 33.125 370.797 32.5781 370.797 31.9062C370.797 31.25 371.344 30.7031 372.016 30.7031C372.656 30.7031 373.219 31.25 373.219 31.9062C373.219 32.5781 372.656 33.125 372.016 33.125ZM376.375 33.125C375.703 33.125 375.156 32.5781 375.156 31.9062C375.156 31.25 375.703 30.7031 376.375 30.7031C377.016 30.7031 377.578 31.25 377.578 31.9062C377.578 32.5781 377.016 33.125 376.375 33.125ZM380.734 33.125C380.062 33.125 379.516 32.5781 379.516 31.9062C379.516 31.25 380.062 30.7031 380.734 30.7031C381.375 30.7031 381.938 31.25 381.938 31.9062C381.938 32.5781 381.375 33.125 380.734 33.125Z" fill="white"/>
</svg>
