<svg width="20" height="20" viewBox="0 0 20 20" fill="none" xmlns="http://www.w3.org/2000/svg">
<path fill-rule="evenodd" clip-rule="evenodd" d="M19.5554 3.30345C19.8366 3.58474 19.9945 3.9662 19.9945 4.36395C19.9945 4.7617 19.8366 5.14316 19.5554 5.42445L8.31236 16.6674C8.16379 16.8161 7.98739 16.9339 7.79324 17.0144C7.5991 17.0948 7.39101 17.1362 7.18086 17.1362C6.97072 17.1362 6.76263 17.0948 6.56849 17.0144C6.37434 16.9339 6.19794 16.8161 6.04936 16.6674L0.463364 11.0824C0.320099 10.9441 0.205826 10.7786 0.127212 10.5956C0.0485989 10.4125 0.00721949 10.2157 0.00548876 10.0166C0.00375804 9.81738 0.0417107 9.61986 0.117132 9.43552C0.192553 9.25117 0.303933 9.0837 0.444772 8.94286C0.585611 8.80202 0.753089 8.69064 0.937433 8.61522C1.12178 8.5398 1.3193 8.50184 1.51847 8.50357C1.71764 8.5053 1.91447 8.54668 2.09747 8.6253C2.28048 8.70391 2.44599 8.81818 2.58436 8.96145L7.18036 13.5574L17.4334 3.30345C17.5727 3.16406 17.7381 3.05348 17.9201 2.97804C18.1022 2.9026 18.2973 2.86377 18.4944 2.86377C18.6914 2.86377 18.8866 2.9026 19.0686 2.97804C19.2507 3.05348 19.4161 3.16406 19.5554 3.30345Z" fill="#E13940"/>
</svg>
