<svg width="20" height="20" viewBox="0 0 20 20" fill="none" xmlns="http://www.w3.org/2000/svg">
<path fill-rule="evenodd" clip-rule="evenodd" d="M19.5554 3.30345C19.8366 3.58474 19.9946 3.9662 19.9946 4.36395C19.9946 4.7617 19.8366 5.14316 19.5554 5.42445L8.31238 16.6674C8.1638 16.8161 7.9874 16.9339 7.79326 17.0144C7.59911 17.0948 7.39103 17.1362 7.18088 17.1362C6.97073 17.1362 6.76265 17.0948 6.5685 17.0144C6.37436 16.9339 6.19796 16.8161 6.04938 16.6674L0.46338 11.0824C0.320114 10.9441 0.205841 10.7786 0.127228 10.5956C0.0486142 10.4125 0.00723475 10.2157 0.00550402 10.0166C0.0037733 9.81738 0.041726 9.61986 0.117147 9.43552C0.192569 9.25117 0.303948 9.0837 0.444787 8.94286C0.585626 8.80202 0.753104 8.69064 0.937449 8.61522C1.12179 8.5398 1.31931 8.50184 1.51848 8.50357C1.71765 8.5053 1.91448 8.54668 2.09749 8.6253C2.28049 8.70391 2.44601 8.81818 2.58438 8.96145L7.18038 13.5574L17.4334 3.30345C17.5727 3.16406 17.7381 3.05348 17.9201 2.97804C18.1022 2.9026 18.2973 2.86377 18.4944 2.86377C18.6914 2.86377 18.8866 2.9026 19.0686 2.97804C19.2507 3.05348 19.4161 3.16406 19.5554 3.30345Z" fill="black"/>
</svg>
