<svg width="24" height="24" viewBox="0 0 24 24" fill="none" xmlns="http://www.w3.org/2000/svg">
<path d="M12 2.5C6.76166 2.5 2.5 6.76165 2.5 12C2.5 17.2383 6.76166 21.5 12 21.5C17.2383 21.5 21.5 17.2383 21.5 12C21.5 6.76165 17.2383 2.5 12 2.5ZM12 3.90741C16.4777 3.90741 20.0926 7.52228 20.0926 12C20.0926 16.4777 16.4777 20.0926 12 20.0926C7.5223 20.0926 3.90741 16.4777 3.90741 12C3.90741 7.52228 7.5223 3.90741 12 3.90741ZM12 6.72222C11.6113 6.72222 11.2963 7.03727 11.2963 7.42593V7.84375C10.8324 7.93404 10.4076 8.11835 10.0538 8.40451C9.52729 8.83036 9.18519 9.50502 9.18519 10.2407C9.18519 11.0418 9.65959 11.6799 10.1858 12C10.7119 12.32 11.2636 12.4621 11.7361 12.6487C12.3824 12.9055 13.4031 13.1302 13.4074 13.7593C13.4074 14.0894 13.2871 14.2976 13.0556 14.485C12.824 14.6722 12.4581 14.8148 12 14.8148C11.2764 14.8148 10.7219 14.3596 10.4937 13.9792C10.3037 13.6625 9.84266 13.5473 9.52606 13.7373C9.20936 13.9272 9.09416 14.3882 9.28413 14.7049C9.66648 15.3421 10.3742 15.9262 11.2963 16.1343V16.5741C11.2963 16.9627 11.6113 17.2778 12 17.2778C12.3887 17.2778 12.7037 16.9627 12.7037 16.5741V16.1562C13.1678 16.0627 13.5922 15.8708 13.9462 15.5845C14.4727 15.1586 14.8148 14.4949 14.8148 13.7593C14.8148 12.9581 14.3404 12.3091 13.8142 11.989C13.2881 11.6689 12.7364 11.5269 12.2639 11.3403C11.6225 11.0843 10.5968 10.8575 10.5926 10.2407C10.5926 9.9106 10.7129 9.6914 10.9444 9.50407C11.176 9.31674 11.5419 9.18519 12 9.18519C12.7236 9.18519 13.2781 9.62944 13.5063 10.0099C13.6963 10.3265 14.1573 10.4418 14.4739 10.2518C14.7906 10.0618 14.9058 9.60079 14.7159 9.28414C14.3335 8.6469 13.6258 8.07098 12.7037 7.86574V7.42593C12.7037 7.03727 12.3887 6.72222 12 6.72222Z" fill="#848484"/>
</svg>
