<svg width="149" height="36" viewBox="0 0 149 36" fill="none" xmlns="http://www.w3.org/2000/svg">
<g clip-path="url(#clip0_2062_138)">
<mask id="mask0_2062_138" style="mask-type:luminance" maskUnits="userSpaceOnUse" x="0" y="0" width="149" height="36">
<path d="M149 0H0V36H149V0Z" fill="white"/>
</mask>
<g mask="url(#mask0_2062_138)">
<path d="M8.6677 20.2885H0V14.9531H23.8126V20.2885H15.1698V35.7043H8.66901V20.2885H8.6677Z" fill="white"/>
<path d="M26.6454 14.9531H46.1727V20.1412H33.1462V22.8096H43.9559V27.4046H33.1462V30.5175H46.1727V35.7056H26.6454V14.9531Z" fill="white"/>
<path d="M64.5188 27.6H71.0196C71.0196 32.7382 66.611 35.9997 59.9136 35.9997C52.5751 35.9997 47.848 31.8242 47.848 25.3275C47.848 18.8308 52.5765 14.6553 59.9136 14.6553C66.611 14.6553 71.0196 17.9155 71.0196 23.055H64.5188C64.2723 21.227 62.6717 19.9921 59.8651 19.9921C56.3689 19.9921 54.3737 21.9187 54.3737 25.3038C54.3737 28.6889 56.5157 30.6643 60.0617 30.6643C62.7451 30.6643 64.2723 29.4294 64.5188 27.6013V27.6Z" fill="white"/>
<path d="M73.2376 14.9531H79.7384V22.2651H88.7509V14.9531H95.2516V35.7043H88.7509V27.6019H79.7384V35.7043H73.2376V14.9531Z" fill="white"/>
<path d="M102.753 27.6V14.9512H109.253V27.4514C109.253 29.428 110.879 30.5143 113.809 30.5143C116.739 30.5143 118.341 29.428 118.341 27.4514V14.9512H124.841V27.6C124.841 32.9355 120.827 35.9997 113.81 35.9997C106.793 35.9997 102.753 32.9368 102.753 27.6Z" fill="white"/>
<path d="M127.674 14.9531H141.662C146.192 14.9531 149 17.6451 149 22.0679C149 26.4906 146.045 29.7258 141.662 29.7258H134.176V35.7043H127.676V14.9531H127.674ZM139.74 24.6863C141.512 24.6863 142.498 23.8709 142.498 22.4874C142.498 21.1039 141.464 20.2885 139.74 20.2885H134.175V24.6863H139.74Z" fill="white"/>
<path d="M10.2565 8.77709L8.22069 6.26916L11.1768 2.6184H9.56436C8.83943 2.6184 8.34522 2.84065 7.90476 3.35618L6.3474 5.27756V0H4.78481C4.41906 0 4.12018 0.298531 4.12018 0.668079V10.5144H5.68147C6.04983 10.5144 6.3474 10.2145 6.3474 9.84628V7.22657L7.61374 8.78366L8.68868 10.1119C8.90629 10.3868 9.19207 10.5144 9.4844 10.5144H11.6657L10.2565 8.77577V8.77709Z" fill="white"/>
<path d="M14.2613 10.5157C13.0605 10.5157 12.2268 9.6832 12.2268 8.47461V0.668079C12.2268 0.298532 12.5257 0 12.8954 0H14.458V8.05509C14.458 8.3865 14.7267 8.6561 15.0544 8.6561H16.6459V9.84759C16.6459 10.2171 16.347 10.5157 15.9786 10.5157H14.2613Z" fill="white"/>
<path d="M16.967 2.03711L16.8307 2.18177C16.8228 2.1844 16.406 2.61445 15.2025 2.61445H9.5224C8.62574 2.61445 8.20363 2.98136 7.88114 3.37721L7.70286 3.59684C7.70286 3.59684 7.69369 3.60604 7.68975 3.6113L6.56238 5.0027C6.97269 4.69233 7.53507 4.5069 8.10793 4.5069H15.2025C16.0651 4.5069 16.891 4.25045 16.9592 3.60473C16.967 3.55344 16.967 3.52056 16.967 3.52056V2.03711Z" fill="#D83831"/>
<path d="M20.4449 9.79863C19.9913 9.23181 19.7645 8.39671 19.7645 7.29333C19.7645 6.18995 20.0437 5.43375 20.6009 4.90245C21.158 4.37114 21.9236 4.10549 22.8937 4.10549C23.6081 4.10549 24.0735 4.06209 24.2898 3.97266V5.03527C24.2898 5.16416 24.181 5.2549 23.966 5.30619C23.7484 5.35879 23.4285 5.3851 23.0025 5.3851C22.3601 5.3851 21.9013 5.54159 21.6234 5.85591C21.3468 6.17022 21.2091 6.65287 21.2091 7.30517C21.2091 8.68078 21.6981 9.3699 22.6774 9.3699C23.4233 9.3699 24.042 9.25285 24.531 9.02008V10.0104C24.531 10.1787 24.4458 10.3037 24.278 10.3852C24.1574 10.4575 23.9306 10.5194 23.5976 10.572C23.2646 10.6246 22.9736 10.6509 22.7259 10.6509C21.6588 10.6509 20.8985 10.3668 20.4462 9.79994L20.4449 9.79863Z" fill="#D83831"/>
<path d="M26.0031 10.2229C25.775 9.93746 25.6597 9.489 25.6597 8.87616V1.71798C25.6597 1.4852 25.7803 1.36816 26.0202 1.36816H27.0794V8.86432C27.0794 9.23387 27.2039 9.4193 27.4517 9.4193C27.6601 9.4193 27.8371 9.39957 27.9813 9.3588V10.1913C27.9813 10.2794 27.959 10.3544 27.9157 10.4149C27.8712 10.4754 27.8135 10.5174 27.7414 10.5411C27.5408 10.6134 27.352 10.6503 27.1751 10.6503C26.6219 10.6503 26.2312 10.5069 26.0018 10.2215L26.0031 10.2229Z" fill="#D83831"/>
<path d="M29.3852 9.87782C28.8989 9.36229 28.6564 8.51799 28.6564 7.34227C28.6564 6.16656 28.8989 5.31831 29.3852 4.79489C29.8703 4.27147 30.5742 4.00977 31.4971 4.00977C32.42 4.00977 33.1252 4.27147 33.6155 4.79489C34.1045 5.31831 34.3496 6.16656 34.3496 7.34227C34.3496 8.51799 34.1058 9.36229 33.6155 9.87782C33.1252 10.392 32.42 10.6498 31.4971 10.6498C30.5742 10.6498 29.8703 10.392 29.3852 9.87782ZM32.5629 8.91121C32.791 8.6061 32.905 8.08268 32.905 7.34227C32.905 6.60186 32.791 6.0745 32.5629 5.76019C32.3335 5.44587 31.9782 5.28937 31.4971 5.28937C31.016 5.28937 30.6621 5.44587 30.4379 5.76019C30.2137 6.0745 30.101 6.60186 30.101 7.34227C30.101 8.08268 30.2124 8.6061 30.4379 8.91121C30.6621 9.21763 31.016 9.37018 31.4971 9.37018C31.9782 9.37018 32.3335 9.21763 32.5629 8.91121Z" fill="#D83831"/>
<path d="M36.2019 10.1366C35.8008 9.79467 35.6002 9.26599 35.6002 8.54925V4.40795C35.6002 4.20674 35.7012 4.10547 35.9004 4.10547H37.0199V8.22179C37.0199 9.00297 37.3411 9.39356 37.9821 9.39356C38.2312 9.39356 38.4527 9.35279 38.6494 9.27257C38.846 9.19234 39.0728 9.07135 39.3297 8.91091V5.55473C39.3297 5.16809 39.3415 4.87482 39.3664 4.6736C39.39 4.47239 39.4359 4.32773 39.5054 4.23962C39.5736 4.1515 39.6758 4.10679 39.8122 4.10679H40.9304C40.8098 4.40532 40.7508 4.86298 40.7508 5.48372V10.1682C40.7508 10.401 40.6341 10.518 40.4021 10.518H39.3311V10.1564C39.0584 10.3168 38.8093 10.4404 38.5851 10.5246C38.3597 10.6088 38.104 10.6522 37.8143 10.6522C37.1405 10.6522 36.6031 10.4812 36.2019 10.1393V10.1366Z" fill="#D83831"/>
<path d="M42.6765 9.84112C42.2662 9.30192 42.063 8.51285 42.063 7.47522C42.063 5.16588 43.0737 4.01121 45.0964 4.01121C45.4176 4.01121 45.7178 4.04803 45.9996 4.12036V2.81708C45.9996 2.42255 46.0114 2.12665 46.035 1.93069C46.0586 1.73343 46.1019 1.59008 46.1674 1.50197C46.2317 1.41385 46.3365 1.36914 46.4807 1.36914H47.5989C47.4796 1.65846 47.4193 2.11744 47.4193 2.74475V10.1699C47.4193 10.4027 47.2987 10.5197 47.0575 10.5197H45.9983V10.1699C45.5172 10.4921 45.0073 10.6525 44.4698 10.6525C43.6833 10.6525 43.0855 10.3829 42.6765 9.84375V9.84112ZM45.4504 9.22565C45.6863 9.12964 45.8699 9.00471 45.9983 8.85084V5.39866C45.7493 5.32632 45.4844 5.2895 45.2039 5.2895C44.7071 5.2895 44.2994 5.43679 43.9835 5.73007C43.6662 6.02334 43.5076 6.61382 43.5076 7.4989C43.5076 8.10254 43.6203 8.56546 43.8445 8.88766C44.0687 9.20986 44.3898 9.37031 44.8067 9.37031C44.9994 9.37031 45.2144 9.32165 45.4504 9.22565Z" fill="#D83831"/>
</g>
</g>
<defs>
<clipPath id="clip0_2062_138">
<rect width="149" height="36" fill="white"/>
</clipPath>
</defs>
</svg>
