<svg width="76" height="62" viewBox="0 0 76 62" fill="none" xmlns="http://www.w3.org/2000/svg">
<path d="M31.6331 61.2151C30.0231 61.2151 28.5989 60.4939 27.5231 59.1286L21.1685 51.2876L12.3526 40.4682V58.0352C12.3526 59.7956 10.9284 61.2228 9.17135 61.2228H0.703703V3.89138C0.703703 2.1308 2.1279 0.70371 3.87719 0.70371H12.3526V33.1931L22.8868 20.2175C25.3249 17.3711 28.0804 16.1457 32.0975 16.1457H40.0386L23.1964 36.9237L42.9259 61.2151H31.6331Z" fill="black"/>
<path d="M11.584 1.50265V35.3123L23.3682 20.7428C25.6788 18.0318 28.1744 16.9242 31.9792 16.9242H38.3104L22.159 36.9234L41.1834 60.4311H31.5171C30.1538 60.4311 28.9446 59.8115 28.0049 58.6189L21.6892 50.7881L11.5917 38.3409V57.9992C11.5917 59.3392 10.5057 60.4311 9.18094 60.4311H1.50194V3.93478C1.50194 2.59478 2.58019 1.50265 3.91268 1.50265H11.5917M13.0859 0H3.90498C1.75611 0 0 1.75825 0 3.93478V61.9265H9.17324C11.3375 61.9265 13.0859 60.1602 13.0859 57.9915V42.5622L20.5262 51.733L26.8419 59.5559C28.1204 61.175 29.7995 61.9265 31.5171 61.9265H44.3333L24.0922 36.9157L41.4608 15.4138H31.9869C27.7276 15.4138 24.8239 16.7228 22.236 19.7591L13.0859 31.0755V0Z" fill="black"/>
<path d="M59.8361 61.2228C53.0915 61.2228 48.5562 56.6928 48.5562 49.9443V3.89178C48.5562 2.13873 49.9909 0.70371 51.7579 0.70371H60.2471V47.4622C60.2471 49.8357 62.1697 51.7594 64.5263 51.7594H73.1858V58.027C73.1858 59.7878 71.7517 61.2151 69.9918 61.2151H59.8361V61.2228Z" fill="black"/>
<path d="M59.485 1.50228V47.4302C59.485 50.2102 61.7321 52.4714 64.5049 52.4714H72.3836V57.9772C72.3836 59.3168 71.2941 60.4085 69.9579 60.4085H59.8402C53.5683 60.4085 49.3509 56.1884 49.3509 49.9005V3.9338C49.3509 2.59414 50.4479 1.51002 51.7919 1.51002H59.5003M60.9986 0.00774373H51.7919C49.6136 0.00774373 47.8525 1.76557 47.8525 3.94155V49.9082C47.8525 57.0247 52.7652 61.9265 59.8402 61.9265H69.9579C72.1284 61.9265 73.8895 60.1606 73.8895 57.9926V50.9768H64.5131C62.5818 50.9768 60.9986 49.3893 60.9986 47.4379V0V0.00774373Z" fill="black"/>
<path d="M76 11.9646L75.1888 12.8228C75.1418 12.8384 72.6611 15.3896 65.4982 15.3896H31.6916C26.3548 15.3896 23.8426 17.5662 21.9232 19.9145L20.8621 21.2174C20.8621 21.2174 20.8075 21.272 20.7841 21.3032L14.0742 29.5574C16.5163 27.7162 19.8634 26.6161 23.273 26.6161H65.4982C70.6322 26.6161 75.5477 25.0948 75.9536 21.2642C76 20.9599 76 20.7649 76 20.7649V11.9646Z" fill="#D83831"/>
</svg>
