<svg width="90" height="22" viewBox="0 0 90 22" fill="none" xmlns="http://www.w3.org/2000/svg">
<path d="M11.1064 21.4543C10.5419 21.4543 10.0426 21.2018 9.66543 20.7237L7.43755 17.9779L4.34673 14.1891V20.3408C4.34673 20.9572 3.84741 21.457 3.23141 21.457H0.262695V1.38043C0.262695 0.763904 0.76201 0.26416 1.3753 0.26416H4.34673V11.6415L8.03997 7.09761C8.89475 6.10083 9.8608 5.6717 11.2692 5.6717H14.0533L8.1485 12.9479L12.4985 18.2956L15.0656 21.4543H11.1064Z" fill="black"/>
<path d="M4.0813 0.526903V12.3822L5.0175 11.2306L8.23314 7.27342C9.04723 6.32283 9.92646 5.93445 11.267 5.93445H13.4976L8.07847 12.6131L7.80711 12.9471L8.07847 13.2812L12.2928 18.4606L14.5098 21.1901H11.1042C10.6239 21.1901 10.1978 20.9728 9.86676 20.5546L7.64159 17.8088L5.02021 14.593L4.08401 13.4442V20.3374C4.08401 20.8072 3.70138 21.1901 3.23465 21.1901H0.529165V1.37972C0.529165 0.909858 0.909059 0.526903 1.37852 0.526903H4.08401M4.61046 0H1.37581C0.618715 0 0 0.61653 0 1.37972V21.7145H3.23194C3.99446 21.7145 4.61046 21.0951 4.61046 20.3346V14.9244L7.23182 18.1401L9.45699 20.8832C9.90745 21.4509 10.499 21.7145 11.1042 21.7145H15.6196L12.7025 18.1238L8.48823 12.9444L14.6075 5.40482H11.2697C9.76905 5.40482 8.74602 5.86384 7.83425 6.92849L4.61046 10.8966V0Z" fill="black"/>
<path d="M20.9889 21.4543C18.628 21.4543 17.0405 19.8682 17.0405 17.5053V1.38043C17.0405 0.76662 17.5427 0.26416 18.1612 0.26416H21.1328V16.6362C21.1328 17.4673 21.8058 18.1408 22.6307 18.1408H25.6618V20.3354C25.6618 20.9519 25.1599 21.4516 24.5438 21.4516H20.9889V21.4543Z" fill="black"/>
<path d="M20.8691 0.526903V16.6355C20.8691 17.6105 21.6586 18.4036 22.6328 18.4036H25.4009V20.3346C25.4009 20.8045 25.0181 21.1874 24.5486 21.1874H20.9939C18.7904 21.1874 17.3086 19.7073 17.3086 17.5019V1.37972C17.3086 0.909858 17.6941 0.529619 18.1663 0.529619H20.8745M21.4009 0.002716H18.1663C17.401 0.002716 16.7822 0.619247 16.7822 1.38244V17.5046C16.7822 20.0006 18.5082 21.7198 20.9939 21.7198H24.5486C25.3112 21.7198 25.93 21.1005 25.93 20.3401V17.8794H22.6357C21.9571 17.8794 21.4009 17.3226 21.4009 16.6382V0V0.002716Z" fill="black"/>
<path d="M26.5922 4.20703L26.3101 4.50578C26.2937 4.51122 25.4309 5.39936 22.9396 5.39936H11.1816C9.32544 5.39936 8.45166 6.15711 7.78409 6.97462L7.41504 7.4282C7.41504 7.4282 7.39606 7.4472 7.3879 7.45807L5.0542 10.3316C5.90356 9.69062 7.06771 9.30767 8.25356 9.30767H22.9396C24.7252 9.30767 26.4349 8.77804 26.5761 7.4445C26.5922 7.33857 26.5922 7.27067 26.5922 7.27067V4.20703Z" fill="#D83831"/>
<path d="M33.7881 20.2364C32.8494 19.0658 32.3799 17.3412 32.3799 15.0625C32.3799 12.7838 32.9578 11.222 34.1111 10.1248C35.2645 9.02754 36.8491 8.47891 38.8573 8.47891C40.3361 8.47891 41.2995 8.38928 41.7472 8.20459V10.3991C41.7472 10.6653 41.522 10.8527 41.077 10.9586C40.6265 11.0672 39.9643 11.1216 39.0825 11.1216C37.7529 11.1216 36.8029 11.4448 36.2277 12.0939C35.6551 12.743 35.3703 13.7398 35.3703 15.0869C35.3703 17.9279 36.3823 19.351 38.4095 19.351C39.9535 19.351 41.2343 19.1093 42.2465 18.6286V20.6737C42.2465 21.0213 42.0702 21.2794 41.7228 21.4478C41.4732 21.5971 41.0037 21.7249 40.3144 21.8335C39.6252 21.9422 39.0229 21.9965 38.5099 21.9965C36.301 21.9965 34.7271 21.4098 33.7908 20.2392L33.7881 20.2364Z" fill="#D83831"/>
<path d="M45.298 21.113C44.8258 20.5236 44.5869 19.5974 44.5869 18.3318V3.54862C44.5869 3.06788 44.8366 2.82617 45.3332 2.82617H47.5258V18.3073C47.5258 19.0705 47.7837 19.4535 48.2964 19.4535C48.7278 19.4535 49.0942 19.4127 49.3927 19.3285V21.0478C49.3927 21.2297 49.3466 21.3846 49.2571 21.5096C49.1648 21.6345 49.0454 21.7212 48.8961 21.7702C48.4811 21.9195 48.0903 21.9957 47.7239 21.9957C46.5787 21.9957 45.7702 21.6996 45.2953 21.1101L45.298 21.113Z" fill="#D83831"/>
<path d="M52.2979 20.4C51.291 19.3353 50.7891 17.5917 50.7891 15.1636C50.7891 12.7355 51.291 10.9837 52.2979 9.90269C53.3019 8.82172 54.7592 8.28125 56.6694 8.28125C58.5799 8.28125 60.0399 8.82172 61.0548 9.90269C62.0669 10.9837 62.5744 12.7355 62.5744 15.1636C62.5744 17.5917 62.0696 19.3353 61.0548 20.4C60.0399 21.4619 58.5799 21.9943 56.6694 21.9943C54.7592 21.9943 53.3019 21.4619 52.2979 20.4ZM58.8757 18.4038C59.3479 17.7736 59.5841 16.6927 59.5841 15.1636C59.5841 13.6345 59.3479 12.5454 58.8757 11.8962C58.4008 11.2471 57.6653 10.9239 56.6694 10.9239C55.6735 10.9239 54.9409 11.2471 54.4768 11.8962C54.0129 12.5454 53.7794 13.6345 53.7794 15.1636C53.7794 16.6927 54.0103 17.7736 54.4768 18.4038C54.9409 19.0366 55.6735 19.3516 56.6694 19.3516C57.6653 19.3516 58.4008 19.0366 58.8757 18.4038Z" fill="#D83831"/>
<path d="M66.4081 20.934C65.5778 20.2279 65.1626 19.1361 65.1626 17.6559V9.1032C65.1626 8.68766 65.3717 8.47852 65.784 8.47852H68.1014V16.9796C68.1014 18.5929 68.7663 19.3995 70.0932 19.3995C70.6089 19.3995 71.0674 19.3153 71.4746 19.1497C71.8815 18.984 72.351 18.7341 72.8828 18.4028V11.4715C72.8828 10.673 72.9073 10.0674 72.9588 9.65182C73.0076 9.23628 73.1027 8.93753 73.2465 8.75556C73.3877 8.57358 73.5993 8.48124 73.8816 8.48124H76.1963C75.9467 9.09777 75.8246 10.0429 75.8246 11.3249V20.9992C75.8246 21.48 75.583 21.7217 75.1027 21.7217H72.8857V20.9749C72.3212 21.3061 71.8056 21.5614 71.3415 21.7353C70.8749 21.9092 70.3456 21.9988 69.7459 21.9988C68.3511 21.9988 67.2386 21.6457 66.4081 20.9396V20.934Z" fill="#D83831"/>
<path d="M79.8105 20.3245C78.9612 19.211 78.5405 17.5814 78.5405 15.4385C78.5405 10.6692 80.6327 8.28456 84.82 8.28456C85.4847 8.28456 86.1061 8.3606 86.6897 8.50997V5.81843C86.6897 5.00364 86.7141 4.39254 86.7629 3.98784C86.8118 3.58046 86.9012 3.28441 87.037 3.10245C87.1699 2.92046 87.3871 2.82812 87.6856 2.82812H90.0003C89.7533 3.42563 89.6285 4.37352 89.6285 5.66905V21.0036C89.6285 21.4844 89.3789 21.726 88.8796 21.726H86.687V21.0036C85.6911 21.669 84.6354 22.0003 83.5227 22.0003C81.8946 22.0003 80.6571 21.4435 79.8105 20.33V20.3245ZM85.5526 19.0535C86.0411 18.8552 86.421 18.5972 86.687 18.2794V11.1499C86.1713 11.0005 85.6232 10.9245 85.0425 10.9245C84.0139 10.9245 83.17 11.2287 82.516 11.8344C81.8594 12.44 81.5309 13.6595 81.5309 15.4874C81.5309 16.734 81.7644 17.69 82.2283 18.3555C82.6924 19.0209 83.3573 19.3522 84.2201 19.3522C84.6192 19.3522 85.0641 19.2517 85.5526 19.0535Z" fill="#D83831"/>
</svg>
