<svg width="24" height="24" viewBox="0 0 24 24" fill="none" xmlns="http://www.w3.org/2000/svg">
<path d="M9 13C11.67 13 17 14.34 17 17V20H1V17C1 14.34 6.33 13 9 13ZM16.6699 13.1299C19.4299 13.5299 23 14.82 23 17V20H19V17C19 15.32 18.0399 14.0599 16.6699 13.1299ZM9 15C6.30027 15 3.20056 16.2897 3 17.0098V18H15V17C14.8 16.29 11.7 15 9 15ZM9 4C11.21 4 13 5.79 13 8C13 10.21 11.21 12 9 12C6.79 12 5 10.21 5 8C5 5.79 6.79 4 9 4ZM15 4C17.21 4.00004 19 5.79003 19 8C19 10.21 17.21 12 15 12C14.53 12 14.0899 11.8998 13.6699 11.7598C14.4999 10.7298 15 9.41993 15 8C15 6.58007 14.4999 5.27021 13.6699 4.24023C14.0899 4.10023 14.53 4 15 4ZM9 6C7.9 6 7 6.9 7 8C7 9.1 7.9 10 9 10C10.1 10 11 9.1 11 8C11 6.9 10.1 6 9 6Z" fill="white"/>
</svg>
