<svg width="24" height="24" viewBox="0 0 24 24" fill="none" xmlns="http://www.w3.org/2000/svg">
<path d="M11.8638 20.1068C15.8482 20.1068 19.0782 16.8768 19.0782 12.8924C19.0782 8.90803 15.8482 5.67804 11.8638 5.67804C7.87941 5.67804 4.64941 8.90803 4.64941 12.8924C4.64941 16.8768 7.87941 20.1068 11.8638 20.1068Z" stroke="#848484" stroke-width="1.5"/>
<path d="M5.64465 3.75665C4.94548 3.94391 4.30793 4.31195 3.79611 4.82376C3.2843 5.33558 2.91626 5.97313 2.729 6.6723M18.0843 3.75665C18.7835 3.94391 19.421 4.31195 19.9329 4.82376C20.4447 5.33558 20.8127 5.97313 21 6.6723M11.8645 8.76963V12.6345C11.8645 12.7767 11.9799 12.8921 12.1221 12.8921H14.9564" stroke="#848484" stroke-width="1.5" stroke-linecap="round"/>
</svg>
