<svg width="149" height="36" viewBox="0 0 149 36" fill="none" xmlns="http://www.w3.org/2000/svg">
<g clip-path="url(#clip0_2124_255)">
<mask id="mask0_2124_255" style="mask-type:luminance" maskUnits="userSpaceOnUse" x="0" y="0" width="149" height="36">
<path d="M149 0H0V36H149V0Z" fill="white"/>
</mask>
<g mask="url(#mask0_2124_255)">
<path d="M8.6677 20.2883H0V14.9529H23.8126V20.2883H15.1698V35.7041H8.66901V20.2883H8.6677Z" fill="#161616"/>
<path d="M26.6455 14.9529H46.1728V20.141H33.1463V22.8094H43.956V27.4044H33.1463V30.5173H46.1728V35.7054H26.6455V14.9529Z" fill="#161616"/>
<path d="M64.5189 27.6003H71.0197C71.0197 32.7385 66.6111 36 59.9137 36C52.5752 36 47.8481 31.8245 47.8481 25.3278C47.8481 18.8311 52.5766 14.6556 59.9137 14.6556C66.6111 14.6556 71.0197 17.9158 71.0197 23.0553H64.5189C64.2724 21.2273 62.6718 19.9924 59.8652 19.9924C56.369 19.9924 54.3738 21.919 54.3738 25.3041C54.3738 28.6892 56.5158 30.6646 60.0618 30.6646C62.7452 30.6646 64.2724 29.4297 64.5189 27.6016V27.6003Z" fill="#161616"/>
<path d="M73.2378 14.9529H79.7386V22.2649H88.7511V14.9529H95.2518V35.7041H88.7511V27.6017H79.7386V35.7041H73.2378V14.9529Z" fill="#161616"/>
<path d="M102.753 27.6003V14.9515H109.253V27.4517C109.253 29.4283 110.879 30.5146 113.809 30.5146C116.739 30.5146 118.341 29.4283 118.341 27.4517V14.9515H124.841V27.6003C124.841 32.9358 120.827 36 113.81 36C106.793 36 102.753 32.9371 102.753 27.6003Z" fill="#161616"/>
<path d="M127.674 14.9529H141.662C146.192 14.9529 149 17.6449 149 22.0677C149 26.4904 146.045 29.7256 141.662 29.7256H134.176V35.7041H127.676V14.9529H127.674ZM139.74 24.6861C141.512 24.6861 142.498 23.8707 142.498 22.4872C142.498 21.1037 141.464 20.2883 139.74 20.2883H134.175V24.6861H139.74Z" fill="#161616"/>
<path d="M9.48545 10.3881C9.21278 10.3881 8.97157 10.2658 8.78936 10.0343L7.71311 8.70475L6.21999 6.87017V9.8489C6.21999 10.1474 5.97878 10.3894 5.6812 10.3894H4.24707V0.668076C4.24707 0.369545 4.48828 0.127563 4.78455 0.127563H6.21999V5.63659L8.00413 3.4364C8.41706 2.95375 8.88374 2.74596 9.5641 2.74596H10.9091L8.05656 6.26916L10.158 8.85862L11.3981 10.3881H9.48545Z" fill="black"/>
<path d="M6.09318 0.255133V5.99562L6.54544 5.43801L8.09886 3.52188C8.49213 3.06159 8.91687 2.87353 9.56445 2.87353H10.642L8.02414 6.1074L7.89305 6.26916L8.02414 6.43092L10.06 8.93885L11.131 10.2605H9.4858C9.25377 10.2605 9.04796 10.1553 8.88803 9.9528L7.81309 8.62322L6.54675 7.06612L6.09449 6.50983V9.84759C6.09449 10.0751 5.90965 10.2605 5.68418 10.2605H4.37721V0.668079C4.37721 0.440564 4.56073 0.255133 4.78752 0.255133H6.09449M6.34881 0H4.78621C4.42047 0 4.12158 0.298531 4.12158 0.668079V10.5144H5.68287C6.05123 10.5144 6.34881 10.2145 6.34881 9.84628V7.22657L7.61514 8.78366L8.69008 10.1119C8.90769 10.3868 9.19347 10.5144 9.4858 10.5144H11.6671L10.2579 8.77577L8.22209 6.26785L11.1782 2.61708H9.56576C8.84083 2.61708 8.34662 2.83934 7.90616 3.35486L6.34881 5.27625V0Z" fill="black"/>
<path d="M14.2614 10.3881C13.1209 10.3881 12.354 9.62008 12.354 8.47592V0.668076C12.354 0.37086 12.5966 0.127563 12.8954 0.127563H14.3309V8.05509C14.3309 8.45751 14.656 8.78366 15.0545 8.78366H16.5188V9.84628C16.5188 10.1448 16.2763 10.3868 15.9787 10.3868H14.2614V10.3881Z" fill="black"/>
<path d="M14.2038 0.255133V8.05509C14.2038 8.52722 14.5852 8.91123 15.0558 8.91123H16.393V9.84628C16.393 10.0738 16.2081 10.2592 15.9813 10.2592H14.2641C13.1996 10.2592 12.4838 9.54249 12.4838 8.47461V0.668079C12.4838 0.440564 12.67 0.256448 12.8981 0.256448H14.2064M14.4607 0.00131512H12.8981C12.5284 0.00131512 12.2295 0.299847 12.2295 0.669394V8.47593C12.2295 9.68452 13.0633 10.517 14.2641 10.517H15.9813C16.3497 10.517 16.6486 10.2171 16.6486 9.84891V8.65741H15.0572C14.7294 8.65741 14.4607 8.38781 14.4607 8.0564V0V0.00131512Z" fill="black"/>
<path d="M16.9671 2.03711L16.8308 2.18177C16.8229 2.1844 16.4061 2.61445 15.2026 2.61445H9.52252C8.62586 2.61445 8.20375 2.98136 7.88126 3.37721L7.70298 3.59684C7.70298 3.59684 7.69381 3.60604 7.68987 3.6113L6.5625 5.0027C6.97281 4.69233 7.53519 4.5069 8.10805 4.5069H15.2026C16.0652 4.5069 16.8911 4.25045 16.9593 3.60473C16.9671 3.55344 16.9671 3.52056 16.9671 3.52056V2.03711Z" fill="#D83831"/>
<path d="M20.4449 9.79887C19.9914 9.23205 19.7646 8.39695 19.7646 7.29357C19.7646 6.19019 20.0438 5.43399 20.6009 4.90269C21.1581 4.37138 21.9236 4.10573 22.8937 4.10573C23.6081 4.10573 24.0735 4.06233 24.2898 3.9729V5.03551C24.2898 5.1644 24.181 5.25514 23.966 5.30643C23.7484 5.35903 23.4285 5.38534 23.0025 5.38534C22.3602 5.38534 21.9013 5.54183 21.6234 5.85615C21.3468 6.17046 21.2092 6.65311 21.2092 7.30541C21.2092 8.68102 21.6981 9.37014 22.6774 9.37014C23.4233 9.37014 24.042 9.25309 24.531 9.02032V10.0106C24.531 10.1789 24.4458 10.3039 24.278 10.3854C24.1574 10.4577 23.9306 10.5196 23.5976 10.5722C23.2647 10.6248 22.9737 10.6511 22.7259 10.6511C21.6588 10.6511 20.8985 10.367 20.4462 9.80018L20.4449 9.79887Z" fill="#D83831"/>
<path d="M26.0032 10.2224C25.7751 9.93698 25.6597 9.48852 25.6597 8.87568V1.7175C25.6597 1.48472 25.7803 1.36768 26.0202 1.36768H27.0794V8.86384C27.0794 9.23339 27.204 9.41882 27.4517 9.41882C27.6601 9.41882 27.8371 9.39909 27.9813 9.35832V10.1908C27.9813 10.2789 27.959 10.3539 27.9158 10.4144C27.8712 10.4749 27.8135 10.5169 27.7414 10.5406C27.5409 10.6129 27.3521 10.6498 27.1751 10.6498C26.6219 10.6498 26.2313 10.5064 26.0019 10.221L26.0032 10.2224Z" fill="#D83831"/>
<path d="M29.3852 9.87782C28.8988 9.36229 28.6562 8.51799 28.6562 7.34227C28.6562 6.16656 28.8988 5.31831 29.3852 4.79489C29.8702 4.27147 30.5742 4.00977 31.497 4.00977C32.4199 4.00977 33.1252 4.27147 33.6155 4.79489C34.1044 5.31831 34.3496 6.16656 34.3496 7.34227C34.3496 8.51799 34.1057 9.36229 33.6155 9.87782C33.1252 10.392 32.4199 10.6498 31.497 10.6498C30.5742 10.6498 29.8702 10.392 29.3852 9.87782ZM32.5628 8.91121C32.7909 8.6061 32.9049 8.08268 32.9049 7.34227C32.9049 6.60186 32.7909 6.0745 32.5628 5.76019C32.3334 5.44587 31.9781 5.28937 31.497 5.28937C31.0159 5.28937 30.6619 5.44587 30.4377 5.76019C30.2136 6.0745 30.1009 6.60186 30.1009 7.34227C30.1009 8.08268 30.2123 8.6061 30.4377 8.91121C30.6619 9.21763 31.0159 9.37018 31.497 9.37018C31.9781 9.37018 32.3334 9.21763 32.5628 8.91121Z" fill="#D83831"/>
<path d="M36.2018 10.1368C35.8007 9.79491 35.6001 9.26623 35.6001 8.54949V4.40819C35.6001 4.20698 35.7011 4.10571 35.9003 4.10571H37.0198V8.22203C37.0198 9.00321 37.341 9.3938 37.982 9.3938C38.2311 9.3938 38.4526 9.35303 38.6493 9.27281C38.8459 9.19258 39.0727 9.07159 39.3296 8.91115V5.55497C39.3296 5.16833 39.3414 4.87506 39.3663 4.67384C39.3899 4.47263 39.4358 4.32797 39.5053 4.23986C39.5735 4.15174 39.6757 4.10703 39.8121 4.10703H40.9303C40.8097 4.40556 40.7507 4.86322 40.7507 5.48396V10.1684C40.7507 10.4012 40.634 10.5182 40.402 10.5182H39.331V10.1566C39.0583 10.317 38.8092 10.4406 38.585 10.5248C38.3596 10.609 38.1039 10.6524 37.8142 10.6524C37.1404 10.6524 36.603 10.4814 36.2018 10.1395V10.1368Z" fill="#D83831"/>
<path d="M42.6765 9.841C42.2662 9.3018 42.063 8.51273 42.063 7.4751C42.063 5.16576 43.0737 4.01109 45.0965 4.01109C45.4176 4.01109 45.7178 4.04791 45.9997 4.12024V2.81696C45.9997 2.42243 46.0115 2.12653 46.0351 1.93057C46.0587 1.73331 46.1019 1.58996 46.1675 1.50185C46.2317 1.41373 46.3366 1.36902 46.4808 1.36902H47.599C47.4797 1.65834 47.4194 2.11732 47.4194 2.74463V10.1698C47.4194 10.4026 47.2988 10.5196 47.0576 10.5196H45.9984V10.1698C45.5173 10.492 45.0073 10.6524 44.4698 10.6524C43.6833 10.6524 43.0855 10.3828 42.6765 9.84363V9.841ZM45.4504 9.22553C45.6864 9.12952 45.8699 9.00459 45.9984 8.85072V5.39854C45.7493 5.3262 45.4845 5.28938 45.204 5.28938C44.7071 5.28938 44.2994 5.43667 43.9835 5.72995C43.6663 6.02322 43.5076 6.6137 43.5076 7.49878C43.5076 8.10242 43.6204 8.56534 43.8445 8.88754C44.0687 9.20974 44.3899 9.37019 44.8067 9.37019C44.9995 9.37019 45.2144 9.32153 45.4504 9.22553Z" fill="#D83831"/>
</g>
</g>
<defs>
<clipPath id="clip0_2124_255">
<rect width="149" height="36" fill="white"/>
</clipPath>
</defs>
</svg>
