<svg width="686" height="176" viewBox="0 0 686 176" fill="none" xmlns="http://www.w3.org/2000/svg">
<rect x="431" width="125" height="23" rx="4" fill="#D000D4"/>
<path d="M449.984 5.6875H451.391V13.1719C451.391 15.5 449.656 17.2031 446.984 17.2031C444.312 17.2031 442.578 15.5 442.578 13.1719V5.6875H443.984V13.0625C443.984 14.7031 445.125 15.8906 446.984 15.8906C448.859 15.8906 449.984 14.7031 449.984 13.0625V5.6875ZM458.438 10.7188C458.25 10.0156 457.719 9.54688 456.719 9.54688C455.672 9.54688 454.922 10.1094 454.922 10.8281C454.922 11.3906 455.375 11.7812 456.375 12.0156L457.641 12.3281C459.156 12.6875 459.906 13.4375 459.906 14.625C459.906 16.0938 458.703 17.1719 456.578 17.1719C454.672 17.1719 453.531 16.3281 453.312 14.7812H454.719C454.875 15.6094 455.484 16 456.547 16C457.75 16 458.516 15.5 458.516 14.7031C458.516 14.1094 458.094 13.7031 457.125 13.4844L455.844 13.1875C454.359 12.8438 453.578 12.0312 453.578 10.9062C453.578 9.45312 454.844 8.40625 456.719 8.40625C458.469 8.40625 459.578 9.34375 459.75 10.7188H458.438ZM465.219 17.1719C462.766 17.1719 461.25 15.4375 461.25 12.8281C461.25 10.2188 462.781 8.40625 465.094 8.40625C466.875 8.40625 468.75 9.5 468.75 12.6406V13.2031H462.594C462.656 15 463.703 15.9844 465.219 15.9844C466.234 15.9844 466.875 15.5469 467.188 15.0156H468.625C468.219 16.2969 466.969 17.1719 465.219 17.1719ZM462.609 12.0625H467.391C467.391 10.6406 466.484 9.59375 465.094 9.59375C463.625 9.59375 462.688 10.75 462.609 12.0625ZM470.5 17V8.51562H471.797V9.8125H471.891C472.203 8.95312 473.078 8.375 474.078 8.375C474.281 8.375 474.625 8.39062 474.781 8.40625V9.76562C474.688 9.73438 474.312 9.67188 473.969 9.67188C472.75 9.67188 471.844 10.5156 471.844 11.6562V17H470.5ZM480.281 17V5.6875H484.125C486.781 5.6875 487.984 7.15625 487.984 9.17188C487.984 10.6641 487.312 11.8438 485.875 12.3438L488.422 17H486.781L484.422 12.5938L484.141 12.6094H481.688V17H480.281ZM481.688 11.3281H484.078C485.875 11.3281 486.594 10.5156 486.594 9.17188C486.594 7.8125 485.875 6.9375 484.062 6.9375H481.688V11.3281ZM493.328 17.1719C490.875 17.1719 489.359 15.4375 489.359 12.8281C489.359 10.2188 490.891 8.40625 493.203 8.40625C494.984 8.40625 496.859 9.5 496.859 12.6406V13.2031H490.703C490.766 15 491.812 15.9844 493.328 15.9844C494.344 15.9844 494.984 15.5469 495.297 15.0156H496.734C496.328 16.2969 495.078 17.1719 493.328 17.1719ZM490.719 12.0625H495.5C495.5 10.6406 494.594 9.59375 493.203 9.59375C491.734 9.59375 490.797 10.75 490.719 12.0625ZM503.328 10.7188C503.141 10.0156 502.609 9.54688 501.609 9.54688C500.562 9.54688 499.812 10.1094 499.812 10.8281C499.812 11.3906 500.266 11.7812 501.266 12.0156L502.531 12.3281C504.047 12.6875 504.797 13.4375 504.797 14.625C504.797 16.0938 503.594 17.1719 501.469 17.1719C499.562 17.1719 498.422 16.3281 498.203 14.7812H499.609C499.766 15.6094 500.375 16 501.438 16C502.641 16 503.406 15.5 503.406 14.7031C503.406 14.1094 502.984 13.7031 502.016 13.4844L500.734 13.1875C499.25 12.8438 498.469 12.0312 498.469 10.9062C498.469 9.45312 499.734 8.40625 501.609 8.40625C503.359 8.40625 504.469 9.34375 504.641 10.7188H503.328ZM510.109 17.1719C507.656 17.1719 506.141 15.4375 506.141 12.8281C506.141 10.2188 507.672 8.40625 509.984 8.40625C511.766 8.40625 513.641 9.5 513.641 12.6406V13.2031H507.484C507.547 15 508.594 15.9844 510.109 15.9844C511.125 15.9844 511.766 15.5469 512.078 15.0156H513.516C513.109 16.2969 511.859 17.1719 510.109 17.1719ZM507.5 12.0625H512.281C512.281 10.6406 511.375 9.59375 509.984 9.59375C508.516 9.59375 507.578 10.75 507.5 12.0625ZM514.984 14.5938C514.984 12.6406 516.703 12.2031 518.172 12.0938C518.711 12.0547 520.086 11.9844 520.469 11.9688V11.2812C520.469 10.2031 519.828 9.57812 518.547 9.57812C517.469 9.57812 516.828 10.0781 516.641 10.7188H515.234C515.406 9.35938 516.734 8.40625 518.609 8.40625C519.719 8.40625 521.797 8.73438 521.797 11.4062V17H520.469V15.8438H520.406C520.125 16.4219 519.344 17.2031 517.875 17.2031C516.266 17.2031 514.984 16.25 514.984 14.5938ZM516.328 14.6562C516.328 15.5469 517.078 16 518.109 16C519.625 16 520.469 14.9844 520.469 13.9219V13.0625L518.328 13.2188C517.109 13.2969 516.328 13.7344 516.328 14.6562ZM523.953 17V8.51562H525.25V9.8125H525.344C525.656 8.95312 526.531 8.375 527.531 8.375C527.734 8.375 528.078 8.39062 528.234 8.40625V9.76562C528.141 9.73438 527.766 9.67188 527.422 9.67188C526.203 9.67188 525.297 10.5156 525.297 11.6562V17H523.953ZM532.75 17.1719C530.344 17.1719 528.875 15.3438 528.875 12.7969C528.875 10.2188 530.406 8.40625 532.719 8.40625C534.531 8.40625 535.875 9.46875 536.094 11.0781H534.75C534.562 10.2969 533.875 9.59375 532.75 9.59375C531.234 9.59375 530.219 10.8438 530.219 12.75C530.219 14.7188 531.203 15.9688 532.75 15.9688C533.75 15.9688 534.516 15.4375 534.75 14.5H536.094C535.875 16.0156 534.641 17.1719 532.75 17.1719ZM539.094 11.9062V17H537.75V5.6875H539.094V9.84375H539.203C539.594 8.96875 540.359 8.40625 541.703 8.40625C543.438 8.40625 544.594 9.4375 544.594 11.6094V17H543.25V11.7031C543.25 10.375 542.516 9.60938 541.297 9.60938C540.031 9.60938 539.094 10.4375 539.094 11.9062Z" fill="white"/>
<path d="M417.202 32.5796C417.025 33.0414 417.452 33.5066 417.927 33.3709L432.681 29.1571C433.291 28.9829 433.249 28.1047 432.625 27.9901L424.743 26.5421L423.865 18.3354C423.798 17.7085 422.933 17.596 422.708 18.1849L417.202 32.5796Z" fill="#D000D4"/>
<rect y="61" width="35" height="23" rx="4" fill="#0030BB"/>
<path d="M12.1328 78H10.6641L14.8047 66.6875H16.2891L20.4297 78H18.9453L17.8203 74.8125H13.2734L12.1328 78ZM13.6953 73.5781H17.3828L15.5859 68.5156H15.4922L13.6953 73.5781ZM23.3672 66.6875V78H21.9609V66.6875H23.3672Z" fill="white"/>
<path d="M48.7979 48.4204C48.9746 47.9586 48.5482 47.4934 48.0727 47.6291L33.3188 51.8429C32.7088 52.0171 32.7512 52.8953 33.3751 53.0099L41.2572 54.4579L42.1353 62.6646C42.2024 63.2915 43.0671 63.404 43.2923 62.8151L48.7979 48.4204Z" fill="#0030BB"/>
<rect x="563" y="153" width="123" height="23" rx="4" fill="#521AAD"/>
<path d="M578.211 170H574.695V158.688H578.352C581.648 158.688 583.602 160.812 583.602 164.328C583.602 167.859 581.648 170 578.211 170ZM576.102 168.75H578.117C580.898 168.75 582.227 167.078 582.227 164.328C582.227 161.594 580.898 159.938 578.258 159.938H576.102V168.75ZM589.055 170.172C586.602 170.172 585.086 168.438 585.086 165.828C585.086 163.219 586.617 161.406 588.93 161.406C590.711 161.406 592.586 162.5 592.586 165.641V166.203H586.43C586.492 168 587.539 168.984 589.055 168.984C590.07 168.984 590.711 168.547 591.023 168.016H592.461C592.055 169.297 590.805 170.172 589.055 170.172ZM586.445 165.062H591.227C591.227 163.641 590.32 162.594 588.93 162.594C587.461 162.594 586.523 163.75 586.445 165.062ZM599.055 163.719C598.867 163.016 598.336 162.547 597.336 162.547C596.289 162.547 595.539 163.109 595.539 163.828C595.539 164.391 595.992 164.781 596.992 165.016L598.258 165.328C599.773 165.688 600.523 166.438 600.523 167.625C600.523 169.094 599.32 170.172 597.195 170.172C595.289 170.172 594.148 169.328 593.93 167.781H595.336C595.492 168.609 596.102 169 597.164 169C598.367 169 599.133 168.5 599.133 167.703C599.133 167.109 598.711 166.703 597.742 166.484L596.461 166.188C594.977 165.844 594.195 165.031 594.195 163.906C594.195 162.453 595.461 161.406 597.336 161.406C599.086 161.406 600.195 162.344 600.367 163.719H599.055ZM602.273 170V161.516H603.617V170H602.273ZM602.945 160.109C602.43 160.109 602.008 159.719 602.008 159.219C602.008 158.719 602.43 158.328 602.945 158.328C603.461 158.328 603.898 158.719 603.898 159.219C603.898 159.719 603.461 160.109 602.945 160.109ZM609.195 173.359C607.148 173.359 605.758 172.469 605.602 170.891H607.008C607.195 171.75 607.992 172.188 609.195 172.188C610.648 172.188 611.539 171.562 611.539 170.156V168.438H611.43C611.148 168.906 610.602 169.875 608.961 169.875C606.898 169.875 605.352 168.312 605.352 165.641C605.352 163.031 606.852 161.406 608.977 161.406C610.617 161.406 611.148 162.406 611.461 162.859H611.57V161.516H612.883V170.234C612.883 172.422 611.258 173.359 609.195 173.359ZM609.148 168.672C610.695 168.672 611.57 167.562 611.57 165.688C611.57 163.875 610.727 162.609 609.148 162.609C607.523 162.609 606.711 163.984 606.711 165.688C606.711 167.453 607.539 168.672 609.148 168.672ZM616.367 164.906V170H615.023V161.516H616.32V162.844H616.43C616.836 161.984 617.617 161.406 618.914 161.406C620.633 161.406 621.773 162.453 621.773 164.609V170H620.43V164.703C620.43 163.391 619.711 162.609 618.508 162.609C617.273 162.609 616.367 163.438 616.367 164.906ZM634.289 161.531C634.164 160.422 633.148 159.781 631.789 159.781C630.289 159.781 629.305 160.562 629.305 161.641C629.305 162.828 630.633 163.266 631.492 163.484L632.617 163.797C633.836 164.109 635.82 164.812 635.82 166.922C635.82 168.766 634.336 170.203 631.711 170.203C629.273 170.203 627.758 168.938 627.633 167.062H629.07C629.195 168.328 630.367 168.922 631.711 168.922C633.273 168.922 634.445 168.125 634.445 166.891C634.445 165.797 633.398 165.375 632.211 165.031L630.82 164.656C629.039 164.141 627.945 163.234 627.945 161.703C627.945 159.797 629.648 158.531 631.836 158.531C634.023 158.531 635.602 159.812 635.664 161.531H634.289ZM637.664 170V161.516H639.008V170H637.664ZM638.336 160.109C637.82 160.109 637.398 159.719 637.398 159.219C637.398 158.719 637.82 158.328 638.336 158.328C638.852 158.328 639.289 158.719 639.289 159.219C639.289 159.719 638.852 160.109 638.336 160.109ZM645.867 163.719C645.68 163.016 645.148 162.547 644.148 162.547C643.102 162.547 642.352 163.109 642.352 163.828C642.352 164.391 642.805 164.781 643.805 165.016L645.07 165.328C646.586 165.688 647.336 166.438 647.336 167.625C647.336 169.094 646.133 170.172 644.008 170.172C642.102 170.172 640.961 169.328 640.742 167.781H642.148C642.305 168.609 642.914 169 643.977 169C645.18 169 645.945 168.5 645.945 167.703C645.945 167.109 645.523 166.703 644.555 166.484L643.273 166.188C641.789 165.844 641.008 165.031 641.008 163.906C641.008 162.453 642.273 161.406 644.148 161.406C645.898 161.406 647.008 162.344 647.18 163.719H645.867ZM652.789 161.516V162.641H651.008V167.562C651.008 168.656 651.539 168.828 652.117 168.828C652.367 168.828 652.711 168.812 652.914 168.797V170.047C652.711 170.078 652.367 170.109 651.977 170.109C650.852 170.109 649.648 169.406 649.648 167.906V162.641H648.367V161.516H649.648V159.484H651.008V161.516H652.789ZM658.008 170.172C655.555 170.172 654.039 168.438 654.039 165.828C654.039 163.219 655.57 161.406 657.883 161.406C659.664 161.406 661.539 162.5 661.539 165.641V166.203H655.383C655.445 168 656.492 168.984 658.008 168.984C659.023 168.984 659.664 168.547 659.977 168.016H661.414C661.008 169.297 659.758 170.172 658.008 170.172ZM655.398 165.062H660.18C660.18 163.641 659.273 162.594 657.883 162.594C656.414 162.594 655.477 163.75 655.398 165.062ZM663.289 170V161.516H664.586V162.844H664.695C665.055 161.938 665.867 161.406 666.977 161.406C668.086 161.406 668.836 161.938 669.242 162.844H669.336C669.773 161.969 670.664 161.406 671.883 161.406C673.398 161.406 674.477 162.328 674.477 164.328V170H673.133V164.344C673.133 163.094 672.336 162.609 671.414 162.609C670.227 162.609 669.555 163.406 669.555 164.484V170H668.195V164.203C668.195 163.25 667.508 162.609 666.539 162.609C665.523 162.609 664.633 163.469 664.633 164.703V170H663.289Z" fill="white"/>
<path d="M549.202 140.42C549.025 139.959 549.452 139.493 549.927 139.629L564.681 143.843C565.291 144.017 565.249 144.895 564.625 145.01L556.743 146.458L555.865 154.665C555.798 155.291 554.933 155.404 554.708 154.815L549.202 140.42Z" fill="#501AA7"/>
</svg>
